/* XPM */
static char *_3246a9c4a2f4293c097e4607ef53708omnmYIIuhKJun9bU[] = {
/* columns rows colors chars-per-pixel */
"64 64 182 2 ",
"   c #0D0A0B",
".  c #070908",
"X  c #120E0E",
"o  c #120E10",
"O  c #0D1113",
"+  c #151313",
"@  c #1A1516",
"#  c #16121B",
"$  c #1A1619",
"%  c #1D1A1B",
"&  c #161A1D",
"*  c #221D1D",
"=  c #25221D",
"-  c #1E1C22",
";  c #1C1A26",
":  c #231E23",
">  c #231E2B",
",  c #291F20",
"<  c #1D2226",
"1  c #252224",
"2  c #2A2525",
"3  c #2C2826",
"4  c #25222B",
"5  c #2A252B",
"6  c #25282A",
"7  c #2D2A2C",
"8  c #312C2D",
"9  c #302728",
"0  c #34302F",
"q  c #262431",
"w  c #2A2532",
"e  c #262934",
"r  c #2D2A33",
"t  c #2D2C39",
"y  c #2E2739",
"u  c #322D33",
"i  c #322C3A",
"p  c #2D3133",
"a  c #2E313A",
"s  c #353233",
"d  c #393535",
"f  c #3C3836",
"g  c #35323B",
"h  c #3A363B",
"j  c #3D3A3C",
"k  c #353839",
"l  c #413D3E",
"z  c #3E403F",
"x  c #44403F",
"c  c #363341",
"v  c #3A3542",
"b  c #3D3B42",
"n  c #3E3C49",
"m  c #423D42",
"M  c #413C4B",
"N  c #483F44",
"B  c #3E4043",
"V  c #454243",
"C  c #494445",
"Z  c #4B4847",
"A  c #45434B",
"S  c #4A4649",
"D  c #4C4A4B",
"F  c #474A4C",
"G  c #524D4E",
"H  c #4E504F",
"J  c #4C4C51",
"K  c #514E51",
"L  c #4C5053",
"P  c #545253",
"I  c #595555",
"U  c #555459",
"Y  c #5A5758",
"T  c #555859",
"R  c #5D5A5C",
"E  c #5C5857",
"W  c #54504F",
"Q  c #605758",
"!  c #625D5E",
"~  c #67635F",
"^  c #5D5B63",
"/  c #645E61",
"(  c #656263",
")  c #6A6665",
"_  c #6C6964",
"`  c #6A666A",
"'  c #6C6A6B",
"]  c #666769",
"[  c #736E6E",
"{  c #6E706F",
"}  c #74706F",
"|  c #6D6D73",
" . c #736E71",
".. c #757273",
"X. c #7A7474",
"o. c #7D7977",
"O. c #767679",
"+. c #7A767A",
"@. c #7D7A7B",
"#. c #74797C",
"$. c #817D7D",
"%. c #807876",
"&. c #85817E",
"*. c #7C7D81",
"=. c #837F80",
"-. c #858384",
";. c #8A8485",
":. c #838488",
">. c #8B8689",
",. c #8C8A8B",
"<. c #8C8887",
"1. c #918D8D",
"2. c #938E91",
"3. c #959294",
"4. c #989393",
"5. c #9C9A9B",
"6. c #969799",
"7. c #8F8F91",
"8. c #A09D9E",
"9. c #9B9FA0",
"0. c #A39EA0",
"q. c #9EA1A2",
"w. c #A5A3A4",
"e. c #AAA5A6",
"r. c #A9A9A7",
"t. c #ABA7A8",
"y. c #A6A9AA",
"u. c #ACABAC",
"i. c #B1ACAD",
"p. c #B0A7AA",
"a. c #B3AFB2",
"s. c #AFB3B3",
"d. c #B5B3B3",
"f. c #BAB5B4",
"g. c #BCB8B6",
"h. c #B5B5B8",
"j. c #BCBBBC",
"k. c #B9B9BB",
"l. c #B4B0AF",
"z. c #C1BDBC",
"x. c #BEC0BF",
"c. c #C5C1BE",
"v. c #BCBCC0",
"b. c #C3BEC0",
"n. c #BEC2C4",
"m. c #C4C3C4",
"M. c #C9C5C6",
"N. c #CDC9C6",
"B. c #C5C6CA",
"V. c #C6C9CB",
"C. c #CCCBCB",
"Z. c #C8C6C9",
"A. c #D1CECE",
"S. c #CED0CF",
"D. c #D5D1CE",
"F. c #CDCED1",
"G. c #D1CFD2",
"H. c #D8CFD2",
"J. c #CED1D4",
"K. c #CFD7D9",
"L. c #D4D3D3",
"P. c #D9D5D4",
"I. c #DDD9D7",
"U. c #D5D5D8",
"Y. c #D9D6D9",
"T. c #D5D9DB",
"R. c #DCDBDC",
"E. c #D6D8D7",
"W. c #E2DDDD",
"Q. c #DFE1DE",
"!. c #E0E2DF",
"~. c #DCDDE1",
"^. c #E3DFE1",
"/. c #E8DFE2",
"(. c #E4E3E3",
"). c #EAE3E5",
"_. c #EBE6E8",
"`. c #ECEAEB",
"'. c #E6E8E8",
"]. c #F1EBED",
"[. c #F6F3F3",
"{. c #FCF8F8",
/* pixels */
"N.z.8 u u 5 i 4 > w r q t v g 4 u 7 8 s 8 8 8 9 9 8 8 3 8 s 8 8 9 0 8 7 9 s 9 9 9 8 8 9 1 d 8 f s 5 b 6 - U Z.G.[ 7 3 2 d 2 i.W.",
"W.z.d ) +.O.U - r t q > r J | :.+.....X.X.X.o.X.X.%.%.X.o.X.[ X.} [ o.o.X.X.X.$.o.[ [ o.o.$.} ` O.-.F 4 ^ h.R.,.U +.X.$.$.* e._.",
"D.f.f =.*.>.O.K q w w q q n ^ *.+.X.X.X.o.o.o.o.[ [ X.X.X...[ 1.1.[ o.o.[ [ ..[ o.X.X.$.o...o.+.' | P m.F.G.C. .s @.X.o.<.h d.I.",
"P.z.d ) % - 4 5 > q w r q 4 q r 2 7 3 2 3 3 2 2 9 7 9 8 9 9 8 ) } 3 7 8 9 8 8 2 1 3 2 3 2 % 8 5 $ D Z.m.m.R.6.& m : 1 R ;.h e._.",
"P.f.s [ : 5 g v g w q e r r 4 > s V V l m l f m l f f f d d 9 X.$.3 s d f j x d l l d f V l d 8 U n.F.C.m.J.*.- s h 8 R ;.d t._.",
"P.f.s  .5 7 w 4 n i q 4 w i t w 1 d d s f f d l m l l V f l 2 X.X.2 l l l f x V f l d f f l 9 R n.B.k.'.v.#.4 V s u.) P ;.d j.P.",
"D.g.d ) 4 1 5 4 i g i w 4 q q 4 1 d s 7 l V j V h h h l f V 2 X.X.3 C f V f h j j V j V d j u t.C.T.F.,.-.; b s ,.Y.! P 3.5 i.^.",
"L.z.f ( 7 5 r w > g n g 4 4 w r 5 d 5 1 h V f b m b h j f C 2 X.$.7 l u V V j B l f u C l m 1 j.F.F.*.< 6 B s 3.Y.E.( P <.d i.W.",
"D.c.l ( - u r 4 w q r v v w q w 5 f 1 1 7 r F b A h h j V l 3 X.X.8 d l f f C j V h V u 7 f * d.T.*.& H b 6 q.L.C.u.s R ;.l e._.",
"W.f.s o.V % w r i q > t n n i > 1 d 2 7 r 4 h p b b M b j l 9 [ =.$ C m d S s h s D 1 R V 7 h k.*.r H O k y.m.V.R...  ( >.8 i.(.",
"D.f.l 3.` 5 g - w r w 4 w g v g 3 d 2 7 r ; w 4 a b A j f l 9 [ X.8 f j j j j j j + K F.K 4 : ) p p k #.:.J.J.E.5.U @ Y 3.s i._.",
"D.g.s [ M 4 b r > r i q ; 4 i b f f 1 1 w w t 4 e g A b h j 9 [ $.2 s D s h H 6 F 9.d.L.D j N * B < 7.U.U.V.L.y.V s s h @.s e.W.",
"W.f.8 ( 4 4 i M r q q r t r q 4 j l u 4 5 r t e e e g b m f 3 [ $.7 l s F A 1 T j.C.F.L.( 5 d S s 6.'.n.v.~.r.j r - ..C Y d h.W.",
"D.z.l ' 1 u r r b t q w t w q 4 s l l i w e q e e < r g b h 2 X. .j j s V s F k.L.n.E.:.s l l u ,.T.n.J.v.F F p 7 ] S.! U j d.`.",
"D.z.d ! : 1 r > c v c r 4 4 w r s u s h g e ; e e q w w i d 3 X.$.: f J 2 L m.L.n.T.*.7 s s S 5 V.K.n.n.k p r k R h.`.Y R d w.(.",
"I.f.s >.R : i 4 > c M v r r w ; l 2 : i M g ; t e e r ; 4 s 7 ..+.7 m 7 T h.J.m.E.#.s s j 3 8 u h.V.v.k j p 6 R C.C.B.R ( s d.W.",
"P.d.7 >.` : v > q w 4 v M 5 1 1 f 7 4 4 r b n g q r ; i 5 5 1 X.@.2 f 1 R R.j.,.6 V C 1 5.D 8 s w.C s h 7 T j.x.C.L.( ! $.8 f.(.",
"P.d.d 2.' # 4 q u i > 4 g h s 1 h 5 4 5 4 r c v i - g 5 5 - 5 ) ..1 C d C C.5.2 s h 5 5.P.S s 8 s j h 5 T m.C.C.L.` $ ) <.u i.W.",
"P.z.f ` / g g r q i 4 4 5 u j g h 4 4 r w 4 w t A 4 4 4 5 h 7 >.O.h $ 2 U >.2 h V 5 -.C.P.D 5 D 7 s 7 I U.V.L.L.( j % D 2.V e.).",
"D.g.1 7 s h v i 4 q 4 i 5 : s m b 5 4 w w 4 q 4 4 A g 4 g J $ V C i.h s 7 u f j 8 -.R.C.m.D 7 V C s D G.k.B.Q.{ 5 V u s ) 2 e.).",
"I.g.1 1 4 > q M v r > u 7 4 s u b g r 5 > 4 r r ; g M i S u V U C.k.7 h V s s +.R.B.L.m.l 2 j s 5 L.U.N.C.(.] 7 j 1 V 5.! % b._.",
"L.z.2 3 5 w w i v v g u : 4 f 4 4 i b h w 4 r w g 5 h b i D h.L.A.5.5 h f s ;.U.B.U.t.P % D j s 2 j.C.k.d.' % j h H >.`.G X f.H.",
"N.g.* : 4 u i ; i v m g : 1 h 5 - 4 b A h r w 4 4 A A j S u.(.Z.>.% h D 5 ( L.G.j.<.D s j f 5 s f I.B.-.1 j z 7 5.L.R.h.P : f.).",
"I.c.2 j u - i i r > w m g u f 4 i > 4 g h i r 5 b h h M v.~.Z.h.j 7 j h 7 D I.B.D $ V 2 V U.l s s -.$.2 h 5 7 w.R.m.w.C +.s a./.",
"D.c.f  .m > > i i 4 w u i m l 4 r r 5 4 5 h b h h J # 3.^.G.6.O.>.: 2 h 1 ! C.D 5 D 5 D z.U.V s D + f s s ' ,.R.d.'.Y P <.s p./.",
"P.d.d 3. .r 4 q i w w w 1 u h g 4 4 5 r 5 1 7 j M s 5 5.^.:.4 O.U ..R 1 f D U 7 h 1 P j.C.P.C 5 s D % s 3.R.R.m.(.u.j Y ;.m 0.).",
"P.z.8 ) m 5 m q q > w u 5 5 u g g w 4 w r 5 5 u h j s h @.j : j O.P.L.5 V s f s P ..k.A.R.o.d j j l $.>.U.d.'.5.R h   ) ;.8 i.).",
"I.f.s  .5 > i v r > > w r 5 7 s h h r 4 4 r 7 1 j j s s 4 V & -.C.R.e.2 j s h V f.'.L.C.-.7 f j s $ P.U.C.R.u.V 7 V 7 P 3.f e.W.",
"L.f.m X.- w > g M i 4 4 4 : 3 j 5 g h i 4 4 4 1 : V j C S 1 +.L.R.j.D s C d D m.L.G.X.Y h s D 7 8 w.L.R.u.C F k k . ..` / d f.).",
"D.z.l / # g 4 4 v v g i 5 : 1 j 4 4 r h h r 5 7 Z l j 7 $ :.R.C.K D h V D % ! R.R.$.l 7 f 5 % V h m.h.D B 7 z 1 Y t.A.P ! l f.I.",
"I.f.s >.R 5 > r q g v v h 7 5 g r 4 4 s b j s s j 3 s +.a.B.C.U R $ s s 1 1 ..8.j s 5 j @ 1.D 5 7 j.G 2 z j % R C.R...I <.1 p.].",
"N.z.d -. .$ g 4 4 i r i m j s j 1 w r 1 4 s j x j D $ ,._.C.D ` O.7 C 2.5 j : j 7 V 7 @.z.U.h s j h s V 5 P k.x.B.L.R P ;.l e.W.",
"P.f.0 $.) = 7 : r w q > w g m m 5 5 u 5 : 5 7 l j f 8 >.N.R % ` C h.m.d.1 j C p V $ ,.L.L.C.V s m s h 1 F C.E.L.L.' * ! 1.8 d.R.",
"P.f.s &._ = s 7 > w i w 4 5 u h h 5 4 1 r g 3 3 m S 1 7 f 7 3 f f.U.R.w.7 s h k 5 -.R.C.B.D 7 j j r U v.n.E.V.j.[ l * ) 1.3 u.'.",
"P.g.d &._ 2 d s r r w q q w 5 4 m u u 5 4 5 1 u j j m d u d V t.C.m.3.2 7 C j ..C.C.h.k.P 6 P h m J h.R.n.s.,.2 D h * Q 1.d d.Q.",
"L.f.d &.) * s u v i y q r r 5 : j f m g 5 1 1 s f f s D f l u.R.w.2 5 V Y 1 D U.R.m.H 2 j V s h $ b.E.j.6.6 s s % s d ! ;.0 u.R.",
"P.f.d &.) % 7 4 r v M c w > 4 7 f 7 u h m j 5 2 C D d 7 e.R.N.5.s 1 C j 7 2 -.C.5.( s s s 7 s V ` C.u.#.p k < j ! S 8 Q <.d w.(.",
"P.g.d &.) * 7 1 4 i v v i r 5 2 h 1 : 5 h m u u j 7 V t._.i.5.G @.% 7 s 5 { L.Y p C 7 z D k j % 2.7.- p k z P -.z.E @ G 4.l e.'.",
"I.g.d &._ = 8 5 w w q r v v u 1 h 4 4 1 4 7 u V V 5 1.^.w.u + $.U R Y 1 s V ..1 j * C w.[.h s C 7 : D 6 p :.C.`.+.u * ( 1.0 w.`.",
"I.f.s $._ 2 s 7 w w q q r g h g s 4 7 r 7 5 2 f m $ ' 1.d f 2 V ' U.m.2 j * f s V ( 8.'.U.D 7 V j 5 h L :.Q.C.k.P 9 8 ! $.d u.!.",
"L.z.s &.) = x f 4 4 r i i w r u g f 5 r 7 i 1 5 m m $ 1 d u !  .m.Y.( u V j $ j u.Y.P.3...V f m 8 ` O.U.J.R.k.V 8 l , ! ;.d r.Q.",
"L.j.s &._ = l d g w > > w w 4 4 g M g i : > : s s m V G 7 ! A._.Y.` 7 f f K ` 0.L.Y.5.j 2 5 V * +.U.R.L.k.' R s d V 2 ! ;.d r.(.",
"P.j.s &._ = f 8 h g g i r 4 4 r 5 f f m g u : 5 D s 7 % R N.W.( G 1 f C % G {.].w.I C s V V s @.G.Y.j.T T < 2 V s V 3 ! ;.d t.'.",
"Y.j.s $._ = s 2 5 u v v r > > 5 r u 5 u u h s j u j [ 3.L.I...D I 7 % m 7 ( t.C V 7 d f 7 8 1 N.Y.G.R 6 r T 1 + 9 l 2 ! ;.s t.'.",
"Y.v.s &._ = f 3 5 4 q i v g r 4 5 i 5 7 1 u s C K o <._.[ I 2 -.l f =.2 m V D 8 f d % @.K 7 f w. .b s V O k k.) 7 l 2 ! ;.s r.(.",
"U.j.u &._ 3 x d 8 5 w i g g g g 5 i 5 r 5 u 2 8 V 1 3.$.: d * 8 ,.u.b.@ C s s s $ ' w.P.S 2 l G u 1 b B r.j.s.f s m 9 ! ;.s w.!.",
"U.v.s $._ 2 C l 7 5 w q > > r g M j 1 : > 7 2 8 m f V u G 1 * e.W.j.D V s d 7 ! j.z.P.N.! 8 5 d j 5 h h.L.y.5 s f C 9 ! ;.d r.(.",
"Y.b.s $.~ = x l m u > 4 u i r 4 5 h f h 5 5 : u l V 8 V $ 8.A.z.d.V 5 f l 2 ! N.L.L. .2 j f C 2 s a.d.R.q.7 V s f C 2 E ;.d u.'.",
"P.g.s &.) 2 l j m f r 4 4 5 w 5 - 7 7 V u f 1 8 f V s 7 1.A.N.x d * m 1 C m.A.m.N. .7 d f l 8 t.B.L.C.w.s k j B j l 2 R <.s i.(.",
"P.g.s $.) 2 l j m m b g u r 5 : u 3 $ s 7 m s l l 7 $.N.A.V 1 X.! u V s ' N.N.-.1 f l s f d e.U.j.r.h 7 % U V 7 j j 5 R <.s i.^.",
"P.g.s $.) 2 l l f M N h g g i 5 : 5 5 h : 1 5 C V $ <.z.V s * I D % 7 V f.$.+ d l % 8 s s e.N.w.7 7 p 7 U z h C j j 5 R <.s i.^.",
"P.g.s $.) 2 l l f M m i 5 s h g r 5 2 h 7 4 * 7 f V 1 2 W 1 l P j.D f s d d V : s G s d : $.G 2 D 2 V D 2 j s V j j 5 R <.s i.^.",
"P.g.s &.) 2 l j m V m 7 : 5 u i h s u j s 7 2 s l m C 8 = l c.L.i.<.d l h @ V C 2.].R 5 G 2 l 5 s s ` >.s V D f j j 5 R <.s i.(.",
"P.g.s &.) 2 l j j m m u 5 4 4 5 5 s m C f 8 s V l 8 * Z G N.).4.7 7 s f V P -.[.j.4.R 7 P 8 7 D P '.,.2 C h s j j j 5 R <.s i.(.",
"P.g.s &.) 2 l j h j j j g 7 5 5 5 5 5 u j m f s f G ! g.[.2.;.V ..s j 1 $.].j.1.(   l s X I ! m.'.,.1 j s f j j j j 5 R >.s u.(.",
"P.g.s &.) 2 l j m j m V j u 5 7 5 7 3 : : 7 l C 1 @.{.4.X.l X <.;.* 8 3.C.-.R % 8 D 2 P [ j._.L.-.$ C V s h C s j j 5 R >.s u.(.",
"A.j.s X.) + d V m f f f d D 8 5 1 5 7 : u : 7 f s C $.l * G @ l D 1 f :.( % s C S 2 S m.Y.W.$.[ 7 V C s S d h l h s @ R -.j w.(.",
"L.z.8 <.o.I f 2 5 P f d V j V 1 8 7 5 7 7 3 8 m D d 1 V 0 + } $.8 % l % s C 8 s 8 K b.I.1.) 7 s s j j j 8 V K s 8 j Y ' >.7 u.'.",
"P.d.0 X.-.1.[ I Z   d G s 2 G C V m s d $ : 7 C u C 0 @ ' 5.D.P.: 2 l C % l ) 8 % w.w.R d : D u G l 8 f S j   C D ( 3.-.@.h t.(.",
"P.L.$.l D o.8.-.$.E C % s G f 8 d f m V 8 f f f l o ..4.A.(.' I R s % d 1.z.3.1 f C f * D j s C 8 d C l : l ( ..1.5.@.D h +.C.R.",
"A.A.I.w.o.8 G X.X.1.[ ) x 2 d C m f j 7 s m C 2 I 0.m.3.f Z 3 I @.: 5.e._.f.f d C 2 C l s l l l C V $ f ' ) 1.+.-.D 7 +.5.L.C.L.",
"N.A.I.N.L.f.o.s ! &.$.-.[ ( d * f j j % 1 7 j 5 :.e.d 0 d s 2 [ U t._.i.j s l V d 5 % d l l C s * d ( ( ;.-...' 2 ` d.R.S.R.U.E.",
"A.A.L.I.P.I.M.l.[ 0 ! ;.o.;.} } 5 f j u d f h d d s 7 d V * % ..h t.f D 8 d d 5 ) f.f.P f V 2 7 [ ' ,.$.<.) 2 ' j.C.U.L.L.C.L.R.",
"P.L.I.I.P.P.W.W.N.A.~ * [ ;.&.$.$.( u 3 s S f V V f f % 1.E * ..d 7 V 7 l G 8 ! P.W.o.s 7 * ' $.;.-.-.o.% I P.m.R.(.L.R.R.E.L.!."
};
