/* XPM */
static char *_1d97a32b8c546d98d3cd788db53d8a7jwVux23Amiataw0h[] = {
/* columns rows colors chars-per-pixel */
"64 64 245 2 ",
"   c #000400",
".  c #0A0302",
"X  c #000B00",
"o  c #0A0B04",
"O  c #070A0A",
"+  c #011301",
"@  c #091305",
"#  c #011B01",
"$  c #0A1C05",
"%  c #061409",
"&  c #0A150A",
"*  c #051C09",
"=  c #0B1C0B",
"-  c #12190C",
";  c #0D1C12",
":  c #0C1313",
">  c #141C15",
",  c #0D0C12",
"<  c #012301",
"1  c #012B01",
"2  c #092C04",
"3  c #052409",
"4  c #0B230C",
"5  c #042C0A",
"6  c #0C2C0C",
"7  c #092304",
"8  c #11230D",
"9  c #122B0E",
"0  c #013302",
"q  c #0A3405",
"w  c #013B02",
"e  c #04340B",
"r  c #0B330D",
"t  c #053C0A",
"y  c #0C3C0D",
"u  c #0B3D06",
"i  c #11340E",
"p  c #153A0B",
"a  c #0D2411",
"s  c #0C2C12",
"d  c #042512",
"f  c #132414",
"g  c #132C13",
"h  c #1A2C1C",
"j  c #182A18",
"k  c #063511",
"l  c #0C3412",
"z  c #0C3B14",
"x  c #0C3816",
"c  c #133313",
"v  c #193316",
"b  c #133C14",
"n  c #14331A",
"m  c #1B341B",
"M  c #143C1A",
"N  c #1B3B1B",
"B  c #1C3B14",
"V  c #222D1F",
"C  c #223B1D",
"Z  c #213D16",
"A  c #1E3422",
"S  c #1D3D22",
"D  c #193924",
"F  c #1D2A20",
"G  c #233522",
"H  c #243B24",
"J  c #293A2A",
"K  c #222E22",
"L  c #014202",
"P  c #014A02",
"I  c #04430A",
"U  c #0C430B",
"Y  c #044B0A",
"T  c #0B4C0D",
"R  c #0B4605",
"E  c #13470C",
"W  c #04550B",
"Q  c #095409",
"!  c #14560D",
"~  c #0D4413",
"^  c #0D4C12",
"/  c #084B15",
"(  c #144315",
")  c #1A4416",
"_  c #124C13",
"`  c #14421B",
"'  c #1C441B",
"]  c #144C1B",
"[  c #1C4B1C",
"{  c #1A4B15",
"}  c #0D5716",
"|  c #135214",
" . c #1A5414",
".. c #145D15",
"X. c #14551B",
"o. c #1B531B",
"O. c #155B1B",
"+. c #1C5C1C",
"@. c #1A5A16",
"#. c #234A1C",
"$. c #22441E",
"%. c #22531D",
"&. c #215C1C",
"*. c #1C611C",
"=. c #166819",
"-. c #1C751E",
";. c #0B6211",
":. c #23681D",
">. c #1D4422",
",. c #1D4C23",
"<. c #1F4D28",
"1. c #1D5523",
"2. c #1B5B21",
"3. c #195A25",
"4. c #0F5322",
"5. c #234323",
"6. c #234C23",
"7. c #244429",
"8. c #2D462C",
"9. c #234C2A",
"0. c #2B4C2C",
"q. c #2B4825",
"w. c #304A2E",
"e. c #235324",
"r. c #235B22",
"t. c #26532B",
"y. c #2B542B",
"u. c #235C2B",
"i. c #2B5B2B",
"p. c #295725",
"a. c #31562C",
"s. c #325B2C",
"d. c #2D4D32",
"f. c #2C4534",
"g. c #334D35",
"h. c #394937",
"j. c #2B5232",
"k. c #2C5932",
"l. c #2D5838",
"z. c #335334",
"x. c #335C33",
"c. c #36533A",
"v. c #3A543B",
"b. c #345B3A",
"n. c #3B5B3C",
"m. c #3B5933",
"M. c #1D6323",
"N. c #1D6B23",
"B. c #1F6629",
"V. c #1C7427",
"C. c #246325",
"Z. c #2B6325",
"A. c #236B25",
"S. c #25622B",
"D. c #2C642C",
"F. c #266D2A",
"G. c #2B6C2C",
"H. c #2A6B26",
"J. c #306B2A",
"K. c #31652C",
"L. c #237225",
"P. c #24742A",
"I. c #2B732B",
"U. c #287829",
"Y. c #31742C",
"T. c #307727",
"R. c #2C6432",
"E. c #2D6B33",
"W. c #276735",
"Q. c #336334",
"!. c #326C33",
"~. c #346339",
"^. c #3B633B",
"/. c #336D3A",
"(. c #3C6B3C",
"). c #3B6736",
"_. c #2D7332",
"`. c #2C7B32",
"'. c #2F793A",
"]. c #337434",
"[. c #347C35",
"{. c #33743A",
"}. c #3B743B",
"|. c #347B3A",
" X c #3C7C3D",
".X c #3B7A34",
"XX c #415A3D",
"oX c #42683A",
"OX c #41723D",
"+X c #417B3C",
"@X c #3B5742",
"#X c #3D6342",
"$X c #3D6B41",
"%X c #3C7443",
"&X c #3C7B42",
"*X c #3A7B45",
"=X c #425D43",
"-X c #455A48",
";X c #454D42",
":X c #446344",
">X c #426C44",
",X c #486849",
"<X c #516C4F",
"1X c #437443",
"2X c #427C44",
"3X c #4C744A",
"4X c #4A7C4B",
"5X c #477749",
"6X c #4A6952",
"7X c #4C7453",
"8X c #567657",
"9X c #51744C",
"0X c #626F5D",
"qX c #5B7961",
"wX c #617B64",
"eX c #7A7C71",
"rX c #2D8335",
"tX c #3B833C",
"yX c #368637",
"uX c #328A34",
"iX c #43863E",
"pX c #3C8941",
"aX c #3E9247",
"sX c #428344",
"dX c #488949",
"fX c #578256",
"gX c #4E9150",
"hX c #4B904C",
"jX c #63875E",
"kX c #5BA25C",
"lX c #5E8862",
"zX c #648865",
"xX c #759876",
"cX c #659068",
"vX c #65A469",
"bX c #76A677",
"nX c #7FB27A",
"mX c #82AE7E",
"MX c #79CB81",
"NX c #859E87",
"BX c #89A788",
"VX c #83B985",
"CX c #95B896",
"ZX c #93A695",
"AX c #92C692",
/* pixels */
"%X*XI 4.qXs ] I b.5 OX[ + 6Xf X :X0 0 L  Xw ^.1 1X1 # L 0 I.dX1 < 7 + O.aXU.=.P.|._.*XR.1 6 &   9XU W V.sX/.W.W.u u 4X(.= X t.0 ",
"y 1.W./.N + /.0 k < 1 ).< a = X j.1 _ @.+.< t.5 < 1 | _.N.M.u.< Z # o.M.P.V.U.=.[.]./ 3.k d.f   i 0 L.V._.S.3.W.1 < !.nXG X x.0 ",
"< ( {.] + + e.0 l + # a.3 S % X #Xe C.C.+.1 y.6 # 1 D.tX[.+.S.1 Z + /._.P.;.L.`.A.{./ 1.1 c $   2 1 P.rXC.S.} *X .R E zXJ X x.{ ",
"# y 3.< X X < < j.5 < + X qXG   #X1 o.| C.0 9.1 3Xy D.H.@.^ %Xy < < 0 M.`.P Q I.w T B.W.1 + + X n.y P =.0 2./ O..Xw # + +   :Xe ",
"< b R.~.$ X y.1 + X p oXn X   + S # o.I G.1 6.c < + r.+X].C.^.1 y.< S.Y `.pXw .X0 < S.%X~ M 4 X 9 + w `.*.|.'.L I.! C.e.X   zXx.",
"X 2 y ^.+   9X< # + B #.# X @   5 # 1.X.!.0 y.N $.1 w w w w 1 # y.0 r.O.N.P Q Z.&.R E.*X0 b.4 X wXM +.tX_.Y '...U.T.tXfXg + g.5 ",
"+ 1 y y.& X a.1 N # m.q.# A &   s # _ D.| < k.6 0.i 1 0 1 U < + i.0 F.|.N.P !  .&.]. XS.# t.4 X =X6 T _. XL } N.L.yXG.4Xm   m 7 ",
"# X i.x.+ + + < z.3 ).oX3 7.* X S 1 o.sX0 + x.3 5.i #.2XU s.6 X e.w O._.M.|.L + # Z.{.I 1 9.j X X # 1 T C.F.L W L.Q w e.n   wXm ",
"+ c ~.6.X X ^.1 X + s.3X3 6Xf X <X< # C.sXw r # 7 # (.E # oXv X u < O.&XI C._ 0 Z.Z.+.E.t 9.m   f.5 D.C.G.].0 L W =.[.r.X X m + ",
"# b ~.` X X $X0 j.3 q y + D a X S < q +.D.0 ' 3 d.# 6.D.< y.7 + _ 0 X.S.X.0 i.%.Z.J.].].0 >.a X A 3 i.].C. Xw L =.-.I.U # X v.n ",
"# b R.1 X X ~.1 j.# < q < X X X g < o.+.C.0 y.6 7.< s.(.1 #.9 X ) 0 2.3.~ < e.%.&..XG.T 1 z.X   A # _ C.^ D.1 0 uXrX*.0 + s v.6 ",
"2 9.%X< X X (.0 # X # [ x d * + c.< q I D.y z.3 + c fX{ + e.8X6 %.< E.%X# k ' < %.r.T U < v.> @ n # u r.E.}.q o.rXrXF.1 + c.5.+ ",
"6 x.%X< X X ~.0 >.3 # t.3 f.X   + + Q.}./.# 6 # 8.5 y + < zXZXg #.{ 1.u.5 9.# 0 2X!.G.&X# + .   + + 0 U /.~ + %.V.=.pX1 + >.6.# ",
"< y.R.# X   t.1 n + + a.3 6X; + g.6 { U r.1 l # g.< e ( # i.n.4 ).0 0 u.# k 9.1 1 C.2.o.# X . . n 1  . ./.1 X x.rXV.B.1.1 x x.1 ",
"< y.1.# X X t.e N # + ^.4 H %   8.c [ _ S.0 < + v.5 ( R.1 ( # X ).q 1 <.< x j.e 1 o.| 1 # + .   0.t r.Z.!.1 + a.pXV.Y %Xe 9.).1 ",
"# >.k +   X 9.e ,X6 + a.3 X %   X # [ D./.< X # ,XM 1.U < i.7.7 s.y %.D.e ~.] e (.1 +.2.+ X . . d.0 r.OXD.e X + B.P O.!.z 9.).1 ",
"1 6.k.# X   <X6 # + + 5.+ n +   N + 0 D.VX6.# + # + _ Y.R r.>X< 1 1 &.Y.C.B.F.F.1 x.}.C.` X   O a + < y < + + ~.*.N.w D.b xXBXp.",
"# 6.5X# X X N 3 X + X 8.< d.= X b < _ Z.OX( 3 6 + # !..XG._ b 1 M 0 T T.[.A.W M.x.' &.C.1 s >   H # q ) 7 X X b +.A.} E.5 z.7X$.",
"< x.>X# X X 3 # c < X XXM n.8 X c 1 o./.< + 8Xg 6 < +...+.C.,.< y.y @.H.| tXyX|.7X' +.I.1 b.J   5.1 p.OXy.# X < +.I._.%X< X # X ",
"+ 9.1 + X X v.s 9.3 X 8.6 7.= X q.1 r.}.{ 1 CXv.z.0 1 P 0 ].5X5 >.1 0 w w vXMXAXx.#.*.Q < b.4 X 0.1 %.K.x.< # t.L O.C.1Xs X + X ",
"2 (.` 9.$ X ,X3 c + X $ X 3 % X 3Xy r.I i.q g + 6 + | iXI. X{ + 6XM + < | &X} hXb b :.L # e.< + y # w D.3X2 X 6._.pX|.4Xa X X X ",
"< 9.$X7X9 X :X6 5.+ X C # +   X x.U  .o.).1 X + c + H.! I.F.1 # n.1 1  .E._.w A.q < I.=.0 D.N X y.1 0 &.(.2 X y.| I.E.1X* X   X ",
"< 1 t.b.+   H + 5.# + :Xg s   + t.u _ !.K.# + X N 1 C.P I.*._ 1 t.1 J..X+._.N._.1 + +.tXw i.n X t.0  . XQ.2 X [ L ..E.(.=       ",
"< + + 5 $ X =Xc X + X h.+ v.>   6.# w w OXy + X m.)  .tXyXY }.y k.0 +.P 1 Q } _.b + R dX0 t.4 X >.1 +.}.1 + + 6.C.C.2X$Xg   X   ",
"# b < 9.$   8XS S # X $ + + %   y.1  .U 1X< # X :X1 L yXU...U 1 R.1 ! ! L F.N.I X < | ].e 5 @ X b.1 o.2X< # + e. X|.I b + + X   ",
"# i.e lXm   v.4 n.7 X j + X   @ ^.U U r.q # X + 0.1 w I.yX..w 1 /.w P :.! A.`.0 X + D.D.1 n =   7.[ o./.1 X + z +.[.I Q.a   = X ",
"1 4Xk >X+ = wXS n.g X J * X   X 0.< < S.[ < X + z.y.].tX[.[.G.1 R.w w =.A.F.P.w + X i.r.e S >   8.< _ }.' + + # M.[.F./.n m m + ",
").AX,.< + X j + c.9   G X X   @ #Xq Q.y bXb f   + # D.[.:.kXVXi.u.t *.T.gXsXB./.* X Q.2X1 *     * X e.[ z.c X [ | L.tXD.5 0.q.+ ",
"( b < ,.$ X 4 X n.$   v.a X   > xXy.e.(.^.3     A + r.*.Q I.&X1 M < o.&._ t X./.= X u dXt s +   X X x.i c + X t.@.P.A.G.# # ^.y ",
"[ # + b.4 + X # c.3 X h.a X   & xXy i.1Xr X   O h # r.w ..[.I + 5 # p.OX0 + /.1.X X 1 sX~ k.v   X X 6 i <Xg + t.G.P =._.< # 6.q ",
">X1 # b.$ + + X g.4   + X   O o 7 + [ e.# X %     + 1XL A.hXw # X X 0.3XM # R.1 X 4 r.sXw 1.2 X   % # 3 NXv.X ^.+.0 N.A.0 i.i.# ",
"q # + 6.<Xg + + 7.+   V ; X     # + ( y.8X7   O X + bX].].&X< + * X 6 + + + k x X X _ A.| %X2 X + X ^.i # + X + D.G.I.w + 3XAX%.",
"s.< # 6.#XM X X * X o eXJ     X + X [ (.6 $       X e./.2.[ # + j.5 a.< + < ` :X= X 1 sXY _ 2 X X + D.H.!.q   X # 8XVXy + f w.6 ",
"s.1 + fX$X1 + + * + - 0XV     X $ + 3XfXz X     - $ + r.1.` $ + 7X1 ( ) + + y.@X# + # /.I ~ # X 6 < +.iXY.0 X   % wXlX^.X   $ X ",
").q + fX5Xl +   =X=   .       + + 7 cXvXlXc X   ;Xj 1 # S.e X X 9.e p.1 # < 5 d.# + # /.2.S.# X ^.0 w I.R + X     m < $XG & 8.c ",
"#.# X # e + X X +     . X X     # # o.] /.#   h ZXN Q.{.O.0 # + k.1 (.1 + y >.a X X < }.] e.# + >Xy  .iX:.< X O   + + (.A   # X ",
"jX6 + c M < X X +   o         & C # 0 u.%Xl X & f.5.u.O.2.0 >.6 u.< _ w %.e.xXzXA X + R.t x.g X x.0 C.Y..Xw     X + < ] * G c # ",
"xX6 X 8Xj.+ $ X A X       O     <X1 w {.1.< X     + W.0 } I ^.r ~ 0  .1 i.e.7XNXf.X # R.t $Xv X >Xw  .R :.1     + e 0 I X ,X5.+ ",
"+ X $ BX8X3 X X @Xf   .       ; :Xy X.{.^ + X X + X X.W =.^ < r R.w !.0 1 y # X X X 5 i.< 6.$ X (.U C.Y.J.1     X $XtXgX1 d.' + ",
"v $ X 4 @Xn   & ZXh.  .         XXy # w R.k X     # &XP.`.].cXy e. .1 1 Z.4Xs X + X + b 1 b.4 + z 1 _ iX .+     3 1XL.dXk + b # ",
"H X X X d.3 X X ;Xh .       O o z.< # X./.< X     X S...`.*.i.# e.0 @.w +.OX3 + % X # a.< 9Xg X [ 0 L J.o.<     + o.U.U.# X ~.1 ",
"G $ + + S +     +     .         q.# < S.[ X       + 0 0 pX^ + # ( w A.P G.5X6 f J X X 6.2 q.* < $X0 0 J.dX2   O X 1 U.=.+ < x.( ",
"h.8   X S 3 X   X X o .     O o :X1 < !.( +       + e.*.pXY + # 1Xo.M.Q gXbXm X + X + < X # 3 l 4X1 # J.nX0.O   # sX-.U.[ + >Xb ",
"= +   X n + X X X + @       . o 8Xq # S.y.3 o   o X %.*.P.[.i.1 2 0 G.P L ,.X X + X + + # Z 5.k ( < < S.1X#     X w -.tXw + fXB ",
"  X X + 7.+ X X X * -         X N # # 2.$X#   .   + [ L P.pX[ # q 1 [.W 1 [ 4 f ; X + $.Z Z M M 1.0 0 /.( X O O + I rXhXt + >Xi ",
"+     + @X5 4 + + g > o X X   X # + < u.8X3   .   # !.Y `.yX~ + oXq O.P w >Xh   X X # oXp + < z W.1 # !.y X     + ].uX-.y X X # ",
"+   X + #X< C m # a &         X >.1 < W.5Xs   . & X }.Y ;.yX*Xy q.E G.P 1 e.+ % & X X m.B # e 1 S.w 1 %X' X , : X sX;.yX( X n.6 ",
"f X + 4 cX5.w.g X * @         & ,XI < u.,.+       * bX} 0 Y /.y p q T 1 w >X* - f X # oXB X y t {.| 1 o.b X : > # 2X.._.0 # 7.6 ",
"h X X f c.4 g.4 X f =         @ x.0 < xX0.X   X   ; #Xb + (.mX) < # >.6 jX3X4 = X X # #.i # e w C.R < i.' X # f + N e <.n # ,Xl ",
"; + X X # X g # X f =         X r # 1 xX=X+         * X 3 xXmX6.+ # G + BX:XX +   X # y.6 c 1 w P P 0 }.b + # g X X X 6X7.+ j.M ",
"% X X X X X + + X 4 =         X 7Xy + c +     O ; ; a a + N 7 # ' # + X 2 # + @ = + # 1X7.0.) ^ G.| 0 4Xb # 3 g X X * BX=X+ # X ",
"F   X = = + g # X = *         X c.5 # 7 = & O   O     a # X X # < 3 + g c 7 + 4 + X + Q.5.l ( 0 dX_ < 1Xb + * 4 X X + ,Xg X # X ",
"J   X 4 = X v.4 X + % X       X c 5 l * X       O : X + + + N < N # X X i # 9 = + + < (.7.:Xr.w  .w 0 5X>.X 4 g   * X X X X g v ",
"f   * 4 $ X ,X4 X + $ @         X X # 4 & O O >   O * 4 $ # 0.6 ^.0.% X 1 # # g 4 X < Q.5.CXi.1 # < e $XN X g g + f j   $ # 9 9 ",
"X   * = $ + c.g + $ = @         z.r # 4 + X ; > X X + 3 c N 2 X 0.< + + + + 6 4 m # < OX5.CXi.< + + + n.v X # 4 = $ f X 4 9 c c ",
"f X X + + + g m g a = X       X n.r + 6 X   * f X + 3 + r >Xq # < # m 4 x.b < # c 2 1 fXb 0.) < + + X wXv.+ + H 4 + g # 6 5.N 2 ",
"h X X X + X 5.v g 4 f %       % lX9.# # + X $ H g < + # q [ OX# + # h # i.q ' + # 5 < 1Xc + 5 2 X X $ XXH X + g.4 7 7 3 3 r b l ",
"f X X + + + =Xw.g + $ @       & xX>Xr # + X 4 H < + e 1 0 r.+XR b b 4 3 1 1 y c < 5 1 1Xc X < 2 X   X = X X $ m 3 6 5 # 1 6.9.5 ",
"A a $ + X X =XC g X X X X     @ 6 < # 3 < X # 6 5 < %X1.w G.H.w o.5 3 N 5XD.( X < 1 0 Q.v X # c + = = + X X g v 7 c b < # ` 9.k ",
"f = + $ X + :XN g X X X       @ N < # N B + # N < < 4Xr.w  X].0 i.r < + o.| [ < + # 0 Q.H + X + 8 8 8 8 4 X 3 N c l r 1 < 5 M M ",
"= + + j 3 # c.N 9 X X X       @ ,Xb + 6 9 X + c < < e.t 1 dXgXL r.( # < w _ 1 < r 1 0 t.g X + # 4 # 4 v g X < 6.6.5 # < < 5 l r ",
"= X + j 7 X 6 # $ X X X X     @ 4 # # m m + $ v < # ( _ _ bXmX}.D.q + <  XG.t e ` < < [ +   + # 6 6 c M r # r e.[ y 1 # # < 3 # ",
"+ X + 4 # X + 7 7 X X = = X   X # + + m g X + v c < ( ~ 1 D.&.1 w 1 y e vXC.t z ` 0 y xX@X& f 7 l x e k 1 1 ~ [ ) ) ) r < 4 9 7 ",
"= + 4 6 # # + g j X + G K %   O -Xj + H J X X 4 c + z ~ < o.U U U o.[ y dXC.0 [ >.1 y CX-XX $ # x z 1 k e ( ,.e.[ ) ' $.5.q.q.C "
};
