/* XPM */
static char *_aa4ac809a5a4b2be1eebce3b2982c9bJp4BVnmJEzUBtKH8[] = {
/* columns rows colors chars-per-pixel */
"64 64 128 2 ",
"   c #060606",
".  c #070A06",
"X  c #080C07",
"o  c #070C08",
"O  c #090A09",
"+  c #0B1406",
"@  c #0D1B06",
"#  c #0C1309",
"$  c #0E1B09",
"%  c #101E09",
"&  c #0E2306",
"*  c #0F2905",
"=  c #0E2109",
"-  c #102407",
";  c #122C06",
":  c #122409",
">  c #132B09",
",  c #133306",
"<  c #153B06",
"1  c #193F06",
"2  c #153309",
"3  c #18370B",
"4  c #163B09",
"5  c #193C09",
"6  c #174205",
"7  c #194406",
"8  c #174A04",
"9  c #1C4C05",
"0  c #174008",
"q  c #1A4308",
"w  c #1C4B09",
"e  c #1D5305",
"r  c #1E5C05",
"t  c #1F5309",
"y  c #205706",
"u  c #215907",
"i  c #21550A",
"p  c #235D0A",
"a  c #1F6205",
"s  c #226505",
"d  c #246B05",
"f  c #236309",
"g  c #256B08",
"h  c #267305",
"j  c #297606",
"k  c #267C02",
"l  c #2B7C05",
"z  c #277708",
"x  c #2A7508",
"c  c #297909",
"v  c #2C8304",
"b  c #2D8A05",
"n  c #2E8408",
"m  c #308607",
"M  c #318C07",
"N  c #318708",
"B  c #328E08",
"V  c #2F9405",
"C  c #2F9408",
"Z  c #329107",
"A  c #319705",
"S  c #309606",
"D  c #319703",
"F  c #309803",
"G  c #319A02",
"H  c #329B03",
"J  c #339C04",
"K  c #329F04",
"L  c #349D05",
"P  c #349F04",
"I  c #349E06",
"U  c #319308",
"Y  c #339608",
"T  c #349508",
"R  c #349709",
"E  c #368711",
"W  c #398E15",
"Q  c #3C9517",
"!  c #3E9B17",
"~  c #3F9F17",
"^  c #33A005",
"/  c #34A205",
"(  c #34A106",
")  c #35A306",
"_  c #34A404",
"`  c #35A505",
"'  c #34A704",
"]  c #34A606",
"[  c #36A606",
"{  c #34A903",
"}  c #34A805",
"|  c #36A906",
" . c #37AA07",
".. c #3FA714",
"X. c #3FA416",
"o. c #40A217",
"O. c #41A916",
"+. c #42AC16",
"@. c #44AE16",
"#. c #43B115",
"$. c #45B515",
"%. c #45B717",
"&. c #46B616",
"*. c #47BE16",
"=. c #48BD17",
"-. c #49BE17",
";. c #46B818",
":. c #48BA1A",
">. c #48BC19",
",. c #4AC117",
"<. c #49C316",
"1. c #48C217",
"2. c #49C515",
"3. c #49C517",
"4. c #4AC417",
"5. c #48C716",
"6. c #4AC616",
"7. c #4CC717",
"8. c #4EC617",
"9. c #4CC915",
"0. c #4DC817",
"q. c #4CC917",
"w. c #49C018",
"e. c #4AC119",
"r. c #49C318",
"t. c #4BCA18",
"y. c #4ACB18",
"u. c #4BCC19",
/* pixels */
"y.y.y.y.u.u.u.u.y.y.y.y.y.y.y.y.9.9.9.9.9.7.7.7.5.5.5.5.5.5.<.<.5.r.<.<.<.r.r.*.>.-.-.-.>.:.;.%.%.%.#.#.@.+.O.....o.~ ~ Q W E N ",
"| | | | | | | | | | | | | | | | { | | ' ' ' ' ' ' ' ' ' ) ) ) ) ) ^ K P P P P K H H D D S S C V V V b b b v v v k k k h d d a r ",
"Y Y Y Y R R R R R R R R R R R R C C C C C C C U Z Z Z Z B B B B B B b b M M b b v n v n n n l l l k j h h h g d d s s u r e e 9 ",
"m m N N N N N N N N N N N N N N b b b n n n n n n n n n n l l l l l l c l c l l l j j x x x x g g g g s s f s p p u e e e 9 9 9 ",
"l l l l l l l l l l l l l l l l l l l l l l c c k h h j h h j j h h h h h h g d g g d g g d s s s s a r r r e e e e 9 8 8 7 0 6 ",
"z z z z z c c c x x x x x x x x j j x x x x x x h h h h h g g g g g g d g g d d s s s f f f s r r r r r e t e e e 9 9 8 7 7 0 0 ",
"d d d d d d d d d d d d d d d d d d d d s s s s s s s s s s s s s a r r r r r r r r e e e e e e e e 9 9 9 9 7 6 7 7 6 6 1 < < < ",
"f f f f f f f f f f f f f f f f a a a f f f f f f f f p p p p p p u r r r u i e i t t t t t 9 w 9 9 9 w w q 0 q 0 1 1 1 5 < , , ",
"p p p p p p p p p p p p p p p p p p p p p p p p p p p p p i i i y e t i i i i 9 t 9 9 9 9 9 9 7 7 7 0 q q q 5 5 5 5 5 5 4 3 3 , ",
"u u u u u u u u y y y y y y y y e e e e t e t t e e t t e t e e 9 9 9 9 9 9 9 9 9 9 7 7 7 6 0 6 0 0 1 1 1 5 < < < < , , , , , ; ",
"e e e e e e e e e e e e e e e e e 9 9 9 9 9 9 9 9 9 9 9 9 9 9 9 9 9 9 9 7 7 7 7 7 0 0 6 0 0 1 < 1 1 < < < , , , , , , , , , ; ; ",
"9 9 9 9 9 9 9 9 9 9 9 9 9 9 9 9 9 9 9 9 9 9 w w 9 9 9 9 7 7 7 7 7 7 6 0 q q q q 0 0 5 5 5 5 < < < < < , , 3 , , , , , ; ; ; ; ; ",
"7 7 7 7 7 7 7 w 7 7 7 7 7 7 7 7 7 9 7 7 7 7 7 7 7 7 7 0 q q q q q q 1 5 5 5 5 5 5 4 4 4 4 3 3 3 , , , , , 2 2 ; ; ; ; ; ; ; ; ; ",
"0 0 0 0 q q q q q q q q q q q q 0 0 0 0 q q q 5 0 0 1 5 5 5 5 4 5 < < < < < 3 , 3 3 , , 2 2 , , , , ; ; ; ; ; > ; ; * & & & - = ",
"5 5 5 5 5 5 5 5 5 5 5 5 5 5 5 5 1 1 5 5 5 5 5 5 4 4 4 < 4 4 3 3 < , , , , , , , , , , , 2 2 > ; ; ; ; ; > > > > ; * * & & = = = ",
"5 5 5 5 5 5 5 5 5 5 5 5 5 5 5 5 < < < < < 4 4 4 < 4 4 4 3 3 3 3 , , , , 3 , , , , , , , 2 2 2 > ; ; ; ; > > > - ; & & & = = = = ",
"3 3 3 3 3 3 3 3 3 3 3 3 3 3 3 3 3 3 3 3 3 3 3 2 2 2 2 2 2 3 2 2 , , 2 2 2 > > > > > ; > > > > > > ; > - > - - - - = = = = = = $ ",
", , , , , , , , , , , , , , , , , , , , , , , , ; ; ; ; ; ; ; ; ; ; ; ; ; ; ; ; ; ; * * * * * & - - & & = = = = = @ @ @ @ @ $ @ ",
"; ; , , , 2 2 2 2 2 2 2 2 2 2 2 > > 2 2 2 2 2 2 > > > ; > > > > ; ; ; ; ; > ; ; ; ; & ; > > > & - - - - - : = = = = @ @ @ @ $ $ ",
"> > > > > > 2 2 > > > > > 2 2 2 > > > > > 2 2 2 > > > > > > > > > > > > > > - - > - - - : - - - - - : : : : = = = = $ $ $ % $ $ ",
"; > > > > > > > ; ; ; ; > > > > > > > > > > > > > > - - - - - - - - - - - - = @ - = = = : : : = - @ @ @ @ $ $ @ $ @ @ $ $ $ + + ",
"- - - - - - - - - - - - - - - - - - - - - - - - - - - - : : - - = - : : : % % % - @ @ @ % % $ $ @ @ $ $ $ $ $ @ $ @ @ @ $ + + + ",
": > - - - - - - - - - - - - - - = : : - : - - - - - - - : : : : : : : : : : % % : % % % % % % $ $ $ $ $ $ $ $ @ $ $ $ $ $ $ $ + ",
"- - - : : : = = : : : : = = = = @ = = = = : : : : : : : : : : : % % : % % % % $ % % $ $ $ $ $ $ $ $ @ @ $ $ @ + $ @ + + $ $ + + ",
"$ $ % % % % % % $ $ $ $ $ $ $ $ $ $ $ $ $ $ % % % % % % % % % % $ $ $ $ $ $ $ $ $ $ @ @ $ $ + + $ + + + + + + + + + + + + $ # + ",
"$ $ $ $ $ $ $ $ $ $ $ $ $ $ $ $ $ $ $ $ $ $ $ % $ $ $ $ $ $ $ $ $ $ $ + + + @ @ $ @ + + + + + + $ $ + + $ $ + + + + + + # # + + ",
"$ $ $ $ $ $ $ $ $ $ $ $ $ $ $ $ $ $ $ $ $ $ $ $ $ $ $ $ $ $ $ $ $ $ $ @ + @ @ @ + + + + + $ + + $ + + + + + + + + + + + # # # # ",
"$ $ $ $ $ $ $ $ + + + $ + + + + + + + + + + $ $ $ $ $ $ $ $ $ $ $ $ $ $ $ $ $ $ + + + + + $ $ # + + + + + + + X + + + + # # # X ",
"+ + + + + + + + $ $ $ $ $ $ $ $ + + $ $ $ $ $ $ # # # # # # # # + + + + + + + + + + + # # $ # # # X X X X X X X X . X X X X X . ",
"$ $ $ $ $ $ $ $ $ $ $ $ $ $ $ $ $ $ $ $ $ $ $ $ $ $ $ $ $ $ $ $ $ $ $ # # # # # # + + + # # # X # X X X X X X X X X X X X X X o ",
"# # # # # # # # # # # # # # # # # # # # # # # # # # # # # # # # # # # # # # # # + + X X # # # X # X X X X X X X X X X X X X X X ",
"X X X X X X X X X X X X X X X X X X X X X X X X X X X X X X X X X X X X X X X X + O X X O O X X X X X X X X X . X . . . . . . . ",
"X X X X # # # # X X X X # # # # X X X # # # X X X X X X X # # X X X X X X O O X X X X X X X X X X O O O X X O O X O . . O O O O ",
"X X X X # # # # X X X X # # # # X # # # # # X # X X X X X X X X X X X X X X O X X X X X X # X X X X O X X X X O X O O O O O O O ",
"X X X X X X X X X X X X X X # # X X X X X # # # X X X X X X X X X X X X X X X X X X X X # # X X X O O O X X X O X O . . O O O . ",
"O O X X X X O O O O O O O X X X X X X X X X X X X X O O O O O O X O O O O O O O O O O X X X X O O . . . O O O . O . . . . . . . ",
"X X X X X X O O O O O O O O O O O O O O O O X X X X X X X X X X O O O O O O O O O O . O X X O . O       O O O   O O O O O O O   ",
"X X X X X X X O X X X O O O O O X O O O O O X X O O X X X O O O O O O O O O O O O O O O X O O . O     O O O O   O O O O O O O O ",
"O O O O O O O O O O O O O O O O O O O O O O O O O O O O O O O O O O O O O O O O O O O O O O O           O O O   O O O O O O O   ",
"O O O O O O                     O O         O O O O O O O O O O O O O O O O O O O O     O O                             O O     ",
"O O O O O O O O O O O O O O O O O O O O O O O O O O O O O O O O O O O O O O O O O O O O O O O O         O O O                   ",
"O O O   O O O O O O O O O O O O O O O O O O O O O O O O O O O O                                 O       O O O   O O O O O O O O ",
"                                                                                                                                ",
"                              O                                 O   O O O O O O O       O O O   O                               ",
"O O O O O O O O O O O O O O O O O O O O O O O O O O O O O O O O O O O O O O O O O O O O O O O O O O O O O O O                   ",
"O O O O O O O   O O O O O O O O O O O O   O O O O O O O O O O O                 O       O O O   O                               ",
"                                                                                O         O                                     ",
"O O O O O O O O O O O O O O O O O O O O O O O O O O O O O O O O                 O         O O           O O O O                 ",
"    O O O O O O   O O O O O O O   O O O O O O O       O O O O   O O O O O O O O O O O O O O O O O O O O O O O O                 ",
"                      O O O           O O O O O                                                                                 ",
"O O O               O O O                   O O O   O O O O O O                                                                 ",
"O O O O O O O O O O O O O O     O           O O O O O O O O O O O O O O O O O O O       O O                                     ",
"O O O O O O O O O O O O         O           O O O O O O O O O O O O O O O O O O O       O O O                                   ",
"                                                O O O O O O O O                                                                 ",
"                                                                                                                                ",
"              O       O O O O O     O O O O O   O O O O O O O O                                                                 ",
"                        O O O O O O O O O O O O                                                                                 ",
"                                                                                                                                ",
"                                                                                                                                ",
"                              O             O O                                                                                 ",
"                                                                                                                                ",
"                                                                                                                                ",
"                O O O O O O O O O O O O O O O O                                                                                 ",
"                        O O O O                                                                                                 "
};
