/* XPM */
static char *b2494b27a16c4010fe6d5de8dd352deeSTdHyZI1Z4oi9r6D[] = {
/* columns rows colors chars-per-pixel */
"64 64 253 2 ",
"   c #010D01",
".  c #070A04",
"X  c #011400",
"o  c #0A1304",
"O  c #011C01",
"+  c #091C03",
"@  c #0B140B",
"#  c #041C0A",
"$  c #081B09",
"%  c #121B0A",
"&  c #0D1E11",
"*  c #012401",
"=  c #0B2305",
"-  c #012B02",
";  c #0A2B04",
":  c #062309",
">  c #0B250A",
",  c #042D09",
"<  c #0B2B0B",
"1  c #122B0D",
"2  c #122909",
"3  c #013301",
"4  c #0B3304",
"5  c #013B02",
"6  c #0A3C05",
"7  c #04330A",
"8  c #0B330C",
"9  c #033C0A",
"0  c #0B3B0D",
"q  c #12350D",
"w  c #123B0D",
"e  c #0D2C11",
"r  c #0B2914",
"t  c #132D12",
"y  c #182A15",
"u  c #0D3412",
"i  c #0D3B13",
"p  c #083915",
"a  c #133414",
"s  c #1A3415",
"d  c #133A14",
"f  c #1B351A",
"g  c #153C1A",
"h  c #1B3C1C",
"j  c #193617",
"k  c #213A1D",
"l  c #1C3C21",
"z  c #1E3523",
"x  c #253D23",
"c  c #233723",
"v  c #014303",
"b  c #014B03",
"n  c #02430B",
"m  c #0B430D",
"M  c #024B0C",
"N  c #0B4C0D",
"B  c #084E06",
"V  c #12440D",
"C  c #134A0F",
"Z  c #005204",
"A  c #005904",
"S  c #01530B",
"D  c #0B540C",
"F  c #015B0C",
"G  c #0C580A",
"H  c #034412",
"J  c #0C4314",
"K  c #044B13",
"L  c #0C4B14",
"P  c #0C4C1A",
"I  c #0A4819",
"U  c #134415",
"Y  c #1B4313",
"T  c #134A15",
"R  c #14431A",
"E  c #1A431D",
"W  c #144C1B",
"Q  c #1A4C1D",
"!  c #1A4C15",
"~  c #025413",
"^  c #0B5315",
"/  c #025B13",
"(  c #0B5B15",
")  c #0E541B",
"_  c #055B19",
"`  c #0C5D1B",
"'  c #04541B",
"]  c #13541C",
"[  c #1C541D",
"{  c #145C1D",
"}  c #1B5B1E",
"|  c #145815",
" . c #12570E",
".. c #22451D",
"X. c #23531C",
"o. c #02640D",
"O. c #026414",
"+. c #02631A",
"@. c #0C631C",
"#. c #026C1B",
"$. c #0B6B1B",
"%. c #076715",
"&. c #13641B",
"*. c #1A621B",
"=. c #146A1D",
"-. c #156518",
";. c #06721C",
":. c #13731B",
">. c #1D4421",
",. c #1C4C23",
"<. c #164D24",
"1. c #085A21",
"2. c #1C5323",
"3. c #135D23",
"4. c #1B5C23",
"5. c #165726",
"6. c #224423",
"7. c #234B25",
"8. c #264B29",
"9. c #2B4C2B",
"0. c #2A4828",
"q. c #324A2E",
"w. c #225325",
"e. c #2A5324",
"r. c #245C24",
"t. c #25542B",
"y. c #2A542C",
"u. c #225B2A",
"i. c #2C5C2C",
"p. c #295B25",
"a. c #31562D",
"s. c #2B5C32",
"d. c #285733",
"f. c #335534",
"g. c #335B35",
"h. c #385939",
"j. c #344A34",
"k. c #0C6422",
"l. c #0B6C23",
"z. c #066B26",
"x. c #136424",
"c. c #146A24",
"v. c #1A6B25",
"b. c #1B6C2B",
"n. c #186629",
"m. c #0C732B",
"M. c #067726",
"N. c #147324",
"B. c #12752A",
"V. c #1C742C",
"C. c #197A28",
"Z. c #1D6B33",
"A. c #197733",
"S. c #0D7E3A",
"D. c #256324",
"F. c #23642B",
"G. c #2B642C",
"H. c #246C2C",
"J. c #266827",
"K. c #316A2A",
"L. c #22742D",
"P. c #28762B",
"I. c #246432",
"U. c #2C6333",
"Y. c #246C33",
"T. c #2B6A34",
"R. c #2A673A",
"E. c #3A633C",
"W. c #356838",
"Q. c #247333",
"!. c #2D7B3A",
"~. c #277835",
"^. c #33733B",
"/. c #387738",
"(. c #30722B",
"). c #42643C",
"_. c #1E7C40",
"`. c #3C6943",
"'. c #2C7842",
"]. c #397A43",
"[. c #377953",
"{. c #456946",
"}. c #47774A",
"|. c #547152",
" X c #07862C",
".X c #18862C",
"XX c #088935",
"oX c #178838",
"OX c #059639",
"+X c #17963D",
"@X c #26862E",
"#X c #2C833B",
"$X c #268638",
"%X c #35863A",
"&X c #33973C",
"*X c #27963E",
"=X c #06A53F",
"-X c #169945",
";X c #139141",
":X c #2A8643",
">X c #338343",
",X c #398A48",
"<X c #279745",
"1X c #389748",
"2X c #3B9757",
"3X c #09A546",
"4X c #16A649",
"5X c #19BA57",
"6X c #13B44E",
"7X c #27A858",
"8X c #39A757",
"9X c #2BB055",
"0X c #2ABC62",
"qX c #3AB365",
"wX c #448A4B",
"eX c #44954D",
"rX c #498756",
"tX c #479858",
"yX c #53945A",
"uX c #508D54",
"iX c #45A859",
"pX c #49B358",
"aX c #589764",
"sX c #529E67",
"dX c #64996C",
"fX c #638F6D",
"gX c #4BA463",
"hX c #54A765",
"jX c #47BB68",
"kX c #5AAA74",
"lX c #5CB876",
"zX c #57B569",
"xX c #66A975",
"cX c #68B375",
"vX c #2BC867",
"bX c #32CB6F",
"nX c #3AE279",
"mX c #42C573",
"MX c #51D17C",
"NX c #70C57A",
"BX c #42E47F",
"VX c #77BC87",
"CX c #72AB8A",
"ZX c #65C484",
"AX c #78C88A",
"SX c #70CD92",
"DX c #4BE68A",
"FX c #57F998",
"GX c #69F89D",
"HX c #7AEFA9",
"JX c #83BD8D",
"KX c #88CB9A",
"LX c #9AD8A5",
/* pixels */
"sXP *   X X 8 t.E < . @ % O L NXAX~.n.gXgX' - E d 3 n.,X~.F +XpXoX/ B.A.I.i d.f.X x q.E H tXkXZ.- < k = * a.2 % y > O a g.0 [ uX",
"b.9   O 1 + E E R t o . o O L hXNXv.v x.A.n * d f.- n b.@.v .XjXA.S l.b.4.R g < : h 0.y.9 1.b.H 7 a x : - y.+   + : X O d * 3 4.",
"'.K * x j.0.i 7 8 : o . @ O 3 ~.H.v v B.z.3 - h.; * Q.lXiXb o..X/ / tXtXi.g * O O : = , 3 Z.>XK - * O O 9 s.> y j l < O 8 O n ].",
"gXK R 0.0.f.- ,.E *   @ & X 3 %X~.b ~ tX2XK * d O * Q.hX1Xb O.C.F S tXtX[ q O * O ; = O n tXcXn.7 >.6.* 9 P * - 9.8.j 6.h.R F.hX",
"Q.3 7 , * E - U.g.e   . X O ^ hXzX=.b !.,XK 3 Q y.- 5 ` S v .XpXL.5 ( ] 6 w * * - w ..T N V.>XK O 6.8.7 '.kXW.8 8 , O j E.U K b.",
"@.v * 8 d E 0 7 ,.< @ . X O n #X#XS v ` _ 5 9 W.e.3 ^ >XL.v #.*X=.5 &.J.! Y m m 3 m p.[ M ~ c.5 R a < 9 2XlX'.- 7 g > X , O 5 x.",
"#X^ 3 7.h.h 0 * h * @ @ $ O - ^ -.v b ~.$XK * ; 2 - Z.gX$Xv b F b b %X%XD.C F.Q.M ` H.` +.oX1X( 3 O * 3 m.m.' 9 t.h.h   X X ^ tX",
"eXv 9 Q 8.* - e.{.t   o X O n /.,XS Z #X1X~ - q ; - k.$XV.Z $.=.G v =.G B n !.$XO.$.C.l.M.oX8X@.3 O * - z.oXx.* p u X   ; O N ,X",
"D v * 7 d 8 ; e.f.=   & X O 5 ,X1XF 5 ^ ` 5 7 i.y.3 v ~ S 5 $.1X( v Z / ( b %.;.#.XX<XoX;. XM./ 3 - O n :XMX'.- 7 , + X   * 3 _ ",
"*.3 * ,.R 8 4 w 2 O       O - { %.5 3 { { 3 - y.e.0 3.>XH.v b @.v v c.V.c./ B. X X+X4X4XOXOX XS 9 ; * v A.8Xb.3 t.{.+ + ; O 5 b.",
"uXN 5 W.,.- - Y s 2 O # X - 3 | -.v b !.>XM O = * - x.2X,Xv.M v v M v.c.=.$.+X-XOX6XvX5X3X6X4Xm.n Y 4 3 S m.K * s.h.X s a.7 M eX",
"(.| - H I 7 3 E.).q X e p 3 5 %X%X( b b.Q.H O X X * 5 k.` Q.H.r.] n ~ _ c.V.<X+X6XnXFXDX6X3X;Xm.^ i.X.v @.:X4.3 0 * - 0.a.W 5 b.",
"M v - H <.I 3 Y e.8 u fXxXI.b #XC.Z 3 v n - O * O * 9 n.] 4.} } T 3 K { H.V.+XOX6XnXGXDX5X3XXX_ ^ [ C N >XhX^.3 U U 3 7 0 n 3 S ",
"%Xv ' kXdXI.3 3 - * g CXKXY.3 Z F 5 3 [ u.9 X X X O 5.tX].L 3 5 3 - L } } ` oX4X=X5XbXvX3X3XoX+.M n 5 - =.Q.C - u.W.- ,.}.L v Q.",
">X5 ' SXVX'.m [ Q J 7 [.rX_ b C.N.v v ^.].J O = j * H '.^.J 6 V ; * 0 0 m ^ oX+X3X5XvX5XOXOXXX_ S x.} - S @.6 - 5 P 3 aXKX].b ~.",
"v 5 v Z.'.3.3 T W 9 * 5.Z.v b %X,XM 5 [ L O > |.h.- 3 n 4.Q Q q 1 O - - V 4.$XM.XX0XDXbXOXM.z.' v !.^.v V.eXD.* 3 - 9 ,XxX,Xv ~ ",
"J 3 b B.C./ 9 8 7 3 3 hXlX/ M N 4.5 3 N m - a h.8.- N (.K.3 : t o % X - 8 T v.l.l.oXqX7X+.~ ] 5 3 n 3 3 ~.#X2.3 J./.5 K c.M 3 K ",
"W.3 S iXjXN.3 q g * n ,XiX$.3 N L - 3 D.G.U 7 p p 3  .(.K.6 > X X + O - 8 U F.v.@.l. X X+.M 9 * ; Q 0 * S ( m - (.(.5 F.1Xb.] ].",
"U.3 b 1X8X%.7 9.`.7 3 ~ $.S 5 ^.].M v *.F.L 3 3 n 5 S G  .v u O O X X * * 0 F.H.S A.7X7Xm.n 3 4 ; E.U.3 _ L.2.* 5 B n wXcX#Xn ] ",
"J - 5 %.;.b - d y.7 3 Q.$XS v 4.Y.v 3 b ~ v H 1.~ S %.o.Z 5 7 O O O ,.s.Y - 3 3 v ~.jX7Xz.M J 4 ; i.t.5 Q.,Xs.- B D 5 ] !./ 3 n ",
"W 5 b C.*XO.* O 7 * 9 tXhX@.3 5 K 3 5 @.c.+.z.S.M.z..X.X=.b n 7 > O 2.u.J 3 4.F.5 ^ A.m.l.gXcXG.* q - * x.v.R 3 /.P.n 9 ( v 5 4.",
"F.n S 1XpX&.3 f.y.* 3 { V.~ 3 4.n.v b V.oXoX;X7X7XXXXX.XN.@.,XaX`.- I ] m 5 4.[ - 5 z.+./ hXAXT.* 9.,.* M ^ i * N D 4.^.eX&.n 4.",
"H 3 5 N.@Xb 3 {.t.7 - L x.~ L I.n.v v _ m.oX0XDXDX4XXXM.#.$.iXAXrX7 P W w 4 p.} v H.8X<X+.~.wX] * {.`.9 { Q.w.* 3 v u.^.,X( 5 m ",
"- 3 5 A $.Z - 0 3 P 7 ^.wXn.T.W 4.n M x.m.XXvXFXFX5X-X X#.S B.>XY.K hXxXW.- 5 3 - { 1X+X+.%.c.v * g u 7 ~.>Xs.d D.J.F.H ^ v - 3 ",
"<.3 b %X1XF - 0 H - 9 /.,XH.] J m n L Y.:XoX4XbXvX3X+XoXB.b F V.N n kXcXn.n F.D.6 6 ~ Z F 1XzXL.* X O - { ] R 7 D.(.- ] { v 3 Q ",
"<.3 v P.@XZ 5 F.'.5 - N ^ v 9 W i.0 3 5.Z.z.XXvXvXOXM.z.k./ 1XNX,XL c.A.) 5 n } - V L.N.%.1XiXv.* O O O ^ 3.R * 3 [ J U.Y.| 9 E ",
"- * - b A v 3 K Q.5 - } H.^ J Q Q 3 * 0 L ~ oXMXbXXX+.~ ~ S @XpXL.b l.V.) * - 5 - [ 1X.XA $.C.v O O O - x.Y.y.- 6 T R R L 5 * ; ",
"u * 3 *.:.Z b n._.M v /.eXH.J 0 - * - 8 9 M M.qX9XM.' ' ) 5 A %.F S iXzXF.5 [ ] - N l.O.b :.$X .O O * * ^ ) R - /.D.R 7 3 3 * > ",
"8.* 3 /.1X%.V.ZXZX:X~ { J.N 3 3 7 - O < i 5 Z #.;.b n I W v :.&Xv.( :X2Xx.M ~.Y.m 6 S Z A &XpXP.w 8.,.- 3 5 i * G.! R i U 0 > a ",
"r O - | %.A $XSXHX8X~ b D v 3 0 R * X > < - S $X$XM 3 , i N @XpX%X&./ +./ 5 ~ ) C [ ~.C.A :..XZ 6 ).{.9 v ^ ,.- 5 V i E R 7 O 1 ",
"X O ; v b Z m.qXmXoXS &.(.| 5 U 7 * X + O * ( iXeX^ * * 8 v $..XL.v.N.B.k.v ~ ^ 5 | #X.XA o.:.v * ..y.7 M ^ ,.- [ W.u u 7 - O > ",
"e O - D.L.Z S ;X-X+.v J.wX} - 7 * O X X X O 5 =.&.3 * < g 5 A o.%.v.1X1Xk._ ,XV.{ D O.o.A @X&X-.3 ; - * 5 v u - W.}.* X O * O > ",
"7 * 5 G.K.D O.8XMXl.3 5 L 5 - , * # . @ @ X 3 ( +.3 * # s Q $X<XL.S #.m.l.+.oX-X;.#.;.o.D %X&XO.m }.E.7 - 7 7 - E E h * * X + + ",
"3 * 3 N V 3 Z 1X8X%.3 5 L J u < > X   @ @ X U ,X:XM * O t 0 L.8X$X/ z.M.$.l.+XXXM. X*XC.D -.;.v L U.w.- - E u O , h < O O X X j ",
"aXW - 5 ! 5 5 #.l.b 3 ! u.,.i < + X X # # O m (.L.5 O O 7 - Z :.=.@.oXoXB.oXqX9XXXM.M.$.B *.N.b 5 7 - * , 8 < * 8.g.u < 8 , d fX",
"LX].n 4.W.C v N.$Xb 3 ! 2.0 - > X + X   X * 3 n ( 3 O X , 5 / :.( +.:X<X:XiXGXGX4X X#.O.( %X<Xl.- 7 q , O * > : h d - >.t.J u.JX",
"rX] n [ [ 3 b 1XiX@.- 3 7 * * < > + X   X * 5 v.b.v - * 3 9 V.1XQ.` m.m.A.<XMXMX4XXX Xl.D -.N.S 3 6.9.< X > t O < O 8 t.s.7 H '.",
"T.n 3 3 3 * 5 N.$XS 3 0 R g 8 * + X , d.s.7 v /.~.M 5.].T.5 S N.b.S k.z.k.z.-XOXXXM.M.$.b D F 5 3 8 u * O > 1 = q.g E J P - n 1.",
"xX5.3 5 ! 6 3 / _ 5 - Y w.,.a O + X <.kXxX{ 3 p.D.M 2XSXhXM v b M 5 k.B.k.B.9X0XXX#.+./ D J.L.M 5 W R , * O + 1 q.h , 3 H 9 ' ,X",
"xX] 3 ] i.5 5 #X,X~ - 4 8 - * 1 y O 5.lXZXb.3 V L 5 :XlX,XM *.(.] 5 K M ~ A.jXmXoX+./ S N J.~.M ] dXdXR X O + X x h , t.W.) K tX",
"] 5 - 9 ; - v >X,X) * * , , > t f O 9 !.!.v 5 T.Y.5 M x.{ v &.!.G.W 5 5 5 ~ S.XX+./ x.{ m m N v 1.VXxXJ * X + X + > : d 2.9 3 3.",
"u.n * 3 4 3 5 _ _ 5 * d 6.a : * O O n V.v.v n G.Y.n b.tX>Xv v ^ T 8 - - - n m.m.~ M K n 6 X.[ 5 ~ ~.'.9 O   = X X + O , d - 3 H.",
"uX2.- m w * - 3.b.H - 8 d > * 2 + O 3.zXzXv.3 6 n 5 >XlXeXv 5 T U 7 * * - P :X2XL 5 3 - 4 p.G.K ~ c.Z.3 * * >   X + = k y.R W }.",
"U.9 * w q * 5 ,X,X5.- O * * : f c O M 1XeXD - U W 5 ` V.( 5 ] ^.R 8 O O O i ~.:XJ - - 3 4 Y [ L ` gXgXn <.{.l X X X > 0.h.E i i.",
"7 3 * * O * 7 4.n.9 O - 8 , > t e O 3 S Z 5 n T.I.9 n ^ N 3 K ) W 8 O + X * K n - O - 8 4 7 9 3 S eXtX5 2.{.6.O X X $ s j * * R ",
"U.U * * * - - n ) 3 O ; a < : < : O v /./.b 5 ] ' 3 4.wX/.3 3 7 J - O + O 7 5.P ; O * * - U T 3 5 S { - - u e   X O $ * O X d ).",
"W.0 O ; 2 - 3 I.Y.H * O * * : j l O v ,XeXD * 9 H 3 3./.r.- n 5.7 * X X X 8 n.I.1 + O O * U 2.N v &.} 5 7 8 j X X X O O X O R `.",
"d , O - O X - I.T.H * O O O > x l - 5 } *.5 3 P P - 5 m 6 - P 5.R u ; = O * P I ; X O - - - 9 3 M yX].0 t.f.q.> > > > : * O - 7 ",
"t * X O O O * J i - O   * O > h g , 0 w.[ 3 3 W J 3 n [ T - - 7 R 7 t.g.f O 3 - O X * * O > , - 5 x.p.0 7.h.j.y f.d.a O O * - U ",
"j.j X X O O * d E 8 * X O O = t a * d }.}.U * 3 3 3 T G.[ - - 8 - - y.s.l O 7 i : X O O O j d - 3 5 3 * d j y > d.d.8 7 u.m - e.",
"z r X O O O - 7.y.7 O O X X O a >.* , s.g.7 * 9 - * 9 Q 0 - - R < * 0 8 r : u i # y 8.R : t 8 - 5 F.i.8 X X   + , p , 6.}.w.- e.",
"# O X O O X * >.y., , h.8.a > k h - * 8 7 * - U 7 * * 7 - * - d j : * X O O - - X f `.y.> O * * m i.e.- O * + = >.R d E J * X O ",
"x > X X * O O , , O , {.f.a O : * * , E E 7 - 3 8 - , d u * O * > : - O # X O O # # a 8 O : : - - 7 - O O X X ; U.,.d 8 8 - < ..",
"0.t X X O O * d 6.8 , g u > > j h * , y.g.u O * * * u h e O O > = X O X X   O X & $ a 8 O > < - * a j O - O * ; i.s.g 8.}.8.* 0.",
"e * O O O X : 7.8.> O O < * : h 9.> O a h * O * O O * < O O > t 1 X - : O   * X X z E.7.* : * O < j f X t.i.e.* - 9 - h }.9.O s ",
"> * O > < * * u a O : f.|.h * 8 < O X O O O O * * X X + O # O O 1 > a.f.f X < *   c {.7.O : < O : > f O y.R Y * u.Q 8 * * * O + ",
"a O : h.{.a O * > X : h.{.a O < > O O k x = X O X X + X X X 1 X   a g.{.f $ {.{.& r d - < h.g.g O X X O O 3 - ; G.U.; = 8.< + f ",
"h * 8 f.f.< O a h * O < a * , >.h.a * s k 1 O + +   X + +   + X O * * ; X > ).E.f X X O e h.g.E X X X O 0 y.q O W Q ; s f.h O t ",
"O X O < < * O : t * X X O O * a ..; * > 1 * X O O   + s t   O O X - 0 R O X d - #   * * X < i 7 O O   O d.rX..* 3 - * 1 9.h O : ",
"Q 7 8 7.9.a O O O O X X O X X , * * * q < O X X X X 7.{.9.X O O * R W.{.6.< R d > X O O O >.Q * X * X   J t.; - E.w.s X * < O a ",
"t.* - E.{.<   * > + X X O X O 7.e.8 * 7 a , O * * O h g.E * Q t.,.9 m [ a g W.}.t O 7 - , E.].Q X 9.9.O , 9 * ; a.9.k X X * O d ",
"i * - 7.y.u O > + O X > j O * f.U.0 * - - * 7 y.7.* 7 ,.J - G.].u.3 5 T * * Q w.* j ^.r.* 7 2.U ; {.{.8 <.R.h * O < +   O O O i ",
"i.J - * * O X X X X X f q.< O 6.W - - Q R * 7 W.t.9 U.yX^.3 v n P L wXaXR * 5 3 : h ^.[ - Q u.- - 9.8.* <.W.h X h 6.+ X * O 3 `.",
"xX2.O O * X O t > +   > x : X E W 3 L rXrXJ - R W 7 ].VXyX5 n ^ 5 ) cXVX,.7 r.G.O u w.5 0 dXcXT.O 8 d O 7 7 O * l 6.+ y 9.7 ,.dX"
};
