/* XPM */
static char *_82b2bbe497e47a2c067d57e7cfa2a30ADmGBcSFZbraxaLE[] = {
/* columns rows colors chars-per-pixel */
"64 64 196 2 ",
"   c #000300",
".  c #010C01",
"X  c #0B0B09",
"o  c #021402",
"O  c #031C03",
"+  c #081907",
"@  c #061008",
"#  c #0B130B",
"$  c #0A1C09",
"%  c #032403",
"&  c #082407",
"*  c #042B04",
"=  c #082D07",
"-  c #072408",
";  c #0A240A",
":  c #072908",
">  c #0B2D0A",
",  c #053304",
"<  c #093307",
"1  c #053B04",
"2  c #083B06",
"3  c #073008",
"4  c #0B340A",
"5  c #073B08",
"6  c #0B3B0B",
"7  c #113C0F",
"8  c #0F2C10",
"9  c #122211",
"0  c #132C12",
"q  c #0E3B10",
"w  c #133412",
"e  c #133C12",
"r  c #193816",
"t  c #1C341C",
"y  c #173819",
"u  c #1B3C1B",
"i  c #064304",
"p  c #094406",
"a  c #064B04",
"s  c #094C06",
"d  c #074209",
"f  c #0C440B",
"g  c #074E08",
"h  c #0C4B0B",
"j  c #10450E",
"k  c #114B0F",
"l  c #045303",
"z  c #085306",
"x  c #065B05",
"c  c #095B06",
"v  c #0C530B",
"b  c #0C5C0A",
"n  c #11530E",
"m  c #105A0E",
"M  c #0F4610",
"N  c #144313",
"B  c #194317",
"V  c #144C13",
"C  c #184D16",
"Z  c #1B441B",
"A  c #164F18",
"S  c #1C4D1A",
"D  c #145313",
"F  c #195316",
"G  c #155B13",
"H  c #195A16",
"J  c #1B531A",
"K  c #1C5C1B",
"L  c #204A1E",
"P  c #20551E",
"I  c #215D1E",
"U  c #076204",
"Y  c #096107",
"T  c #0C630B",
"R  c #0E6D0C",
"E  c #11630D",
"W  c #0E750C",
"Q  c #12740E",
"!  c #156213",
"~  c #196416",
"^  c #156A13",
"/  c #196917",
"(  c #196B17",
")  c #1D631C",
"_  c #1D6B1B",
"`  c #167113",
"'  c #187616",
"]  c #187316",
"[  c #197B15",
"{  c #1D741C",
"}  c #1E7B1C",
"|  c #21631E",
" . c #216F1E",
".. c #20741E",
"X. c #217C1F",
"o. c #1F4120",
"O. c #214422",
"+. c #234E21",
"@. c #2A4E28",
"#. c #2D472C",
"$. c #245323",
"%. c #295427",
"&. c #255C23",
"*. c #295F27",
"=. c #2B542A",
"-. c #2C5C2B",
";. c #345B32",
":. c #385C38",
">. c #256224",
",. c #286626",
"<. c #246B22",
"1. c #296F27",
"2. c #2C642B",
"3. c #2D6B2B",
"4. c #31632E",
"5. c #32692F",
"6. c #237422",
"7. c #297326",
"8. c #257A23",
"9. c #297C26",
"0. c #2D732B",
"q. c #2C7C2A",
"w. c #30712F",
"e. c #317A2F",
"r. c #366335",
"t. c #346D34",
"y. c #3A6E36",
"u. c #3A6538",
"i. c #386838",
"p. c #367434",
"a. c #397037",
"s. c #347C33",
"d. c #3D763C",
"f. c #3C7D3A",
"g. c #406B3E",
"h. c #437342",
"j. c #427C41",
"k. c #4E744D",
"l. c #5D7F5E",
"z. c #537753",
"x. c #0D830B",
"c. c #148011",
"v. c #188E14",
"b. c #1C8818",
"n. c #1F901C",
"m. c #20851D",
"M. c #20931C",
"N. c #209B1E",
"B. c #258223",
"V. c #288127",
"C. c #2D8D2B",
"Z. c #2B842B",
"A. c #308D2E",
"S. c #32862E",
"D. c #259422",
"F. c #2C9728",
"G. c #329D2E",
"H. c #348332",
"J. c #358A34",
"K. c #3D8339",
"L. c #3C8C3A",
"P. c #359433",
"I. c #389836",
"U. c #3C923A",
"Y. c #3E993C",
"T. c #41843F",
"R. c #408B3E",
"E. c #40943E",
"W. c #409A3E",
"Q. c #40A23F",
"!. c #418E40",
"~. c #498F46",
"^. c #498348",
"/. c #4C8D4A",
"(. c #439741",
"). c #459C44",
"_. c #528751",
"`. c #508C50",
"'. c #549B53",
"]. c #5A9459",
"[. c #579858",
"{. c #46A744",
"}. c #48A346",
"|. c #4DA44B",
" X c #52AD4E",
".X c #52A150",
"XX c #53AB52",
"oX c #5BA558",
"OX c #59B157",
"+X c #61A25E",
"@X c #60BE5E",
"#X c #68A468",
"$X c #67A864",
"%X c #65B763",
"&X c #6AC369",
"*X c #79C875",
/* pixels */
"% O % % O o O % O O * % * * = * * * * * * * * * * , i i i , 2 % a.9 = 5 * * , , , b a a i n z / ~ ! T Y z v c x ` [ ^ 6.O . 6.I.",
"2 3 * < : o O O O O % & % * * * * * * % * * * = * * * 1 1 1 2 * i o * 3 * * * * * 1 1 i i i a H K z b R c a z a T ' / L.r . 4 a ",
"V h * f *   o O o O % % O O * * % * , % * % * * % 3 , * = i , * S @ * 5 % * & % % * 5 * 2 i i a c p a v ^ Y x a s ' 8.XX-.3 { G ",
"% V 4 5 O   o O o O O % % % % % & * % % * * = % % % 1 , % , 5 * B . % % O % % O O O O % * * , 5 2 2 2 i a a z 2 s v  .] S % h 6.",
"* 4 > 6 O   O % . O % O % % * * = % % O = 5 1 , = * * , % % * 4 -.  O O O O O O O O O O % % * = * = , 1 1 2 1 , 5 * 1 ( >.o a 2 ",
"3 2 6 < . . % * o o % % O % % % * * O % * % * 5 3 5 5 3 * % * O e   o 4 * O O % O + % ; O * * * * * , 5 5 5 2 1 5 5 5 2 * o x a ",
"o . .                 . .     . O o . . . o   . . . o .   . .               . o o . . + @ . .       . .                     o * ",
"0 4 = 6 6 e 0 ; ; $ o o + O + .       O w ; : > w Z O.O.-.f B u.V 1 &.j.s h.$X..G N J f I @.  J V 4 B $.z.;.&.g.k.i.j +.r.%.u 9 ",
"} G.! ) &.G W.C.9.A.C.} 8.B._ ] f . o 5 * * * 4 F J 7.7.,.G * H h % 4 H v 7 K.c i 2 6 % , ,.. F V , 2 f #X+X~ 6.).J.b j >.<.<.K ",
"N 8.Q ` ) D H G { 9.q.V.8.Y.}.G.F.6 . * % % % , * % % * O * * * * 5 * * i , * i 5 f 1 * O V % 1 1 , , , i U l l m...z l l a l l ",
"% 5 f 2 * = k f h 2 2 h i ! L.I.N.1   % % O 5 2 5 2 5 5 % 2 5 * = , 1 , i 1 2 i 1 i i i * & + 5 2 , * 2 v T x x x E b l z x z z ",
"% O O % % % 6 3 2 * * 1 p 1 h ^ D.V   * % O 5 i , , i 1 % * 1 , , , 5 2 a a i 2 i 2 1 i * = . O % % * , i a i 2 i i l a i i 2 i ",
"O O O % O - N = 1 * O * < * 1 a b f   % O % * 5 5 % a 1 * * , , i 1 3 a d a i i i i i v % % O : O % O O * 5 5 = , , 3 2 , , * * ",
"O O O & % O 4 O % % O O % % O % 2 3 . % O O * * 3 * * , * , * * i , , i f a a i i i ) s * e + N O % * % * % * , % * = d f 2 2 * ",
"O O O O % % * % % = O % * * 5 d 2 O o 5 % % * , * , , * , 1 , 3 i h 2 i z a a a b { q.q.! j   o 4 O = i p 1 1 p 6 * 5 * v Y z 1 ",
"= + O o O O * % % N 4 % * & 3 d 5 O . = * 6 , f D h f 1 1 k h , k 3.h f j 1 2 N 4 4 % : % o     . . . O % O & & & o o   O % * o ",
"      . .                       . o         .   .     . . . .                       X     3 % O O . o .   .         . . + r e %.",
"I +.; . O 4 B F 6 6 $.,.k * 6 f 6 j D f 6 B 6 V S V e , 2 2 D u o 6 5 D 0.t.0.0. .m K R.~.XXU..XW.'.6.L.J.(.$XR.f./.L.0 % v m ` ",
"6.).@Xr % V < j : % e J 5 N % * S * 3 , , D G f D } C.v h 1 z h . = % 3 5 6 f F H n k F ,.J | ` 9.p.3.q.|.E.9.9.6.e.'.:.% b p l ",
"2 v H.o.  S 5 O % % O O O * % * 6 % * * * % 2 f 6 , i h h 2 i D o * o O * % * i i 6 f 2 f * * i H H <.h i 1 1 1 s l l F 3 R b T ",
"D V b & . O : < * O * * % % % % 5 * 3 1 i N V D * % = 1 h 2 , V ; 1 O * = * % 1 1 j D v D N * 3 s D ) ) K v f 5 q D _ L O i i g ",
"6 1 z %   o o * O o O O O % % O % % = 5 3 2 3 * O & * 3 2 c , 6 O 3 o O * % % 3 , = f m n j 5 * p v z h n b x z * % D y & h 5 , ",
"% O 6 4   w &.. ; % o o O % % & O O % = * < f * & O O O * i p O . i O O O % * % * % * * F 6 1 % * * = 2 x U R M.s * h ;.o T 1 * ",
"& O = > . O I r.& O & o . O = O o % % * < * , 2 4 4 , % O 1 i h + z * % = * * = , * 1 2 3 * * * = * 3 i c Y T b.a , z 6 * W G 3 ",
"= * = % o 3 * _ D f D J 4 f v B % < 3 % % * & % < > , 5 O & i f . p 2 * 2 i i 4 i * 1 z z i 1 2 i 2 a b b Y z c z 1 i * + / F 4 ",
".     .   % O O * % O O 4 = 4 t.& o o o o .       .       . .       . . . . . . . .   o % % % * % O o 8 6 , O * % o o O         ",
"= N 6 : O ; ; . o + . X               o & = 4 w > e Z +.Z u =.4.J u > > e i.+.$.V 5 r t @   . * B 6 e w 4 =.*.*.=.=.=.t.j.2.k.l.",
"f V j 6 2 K q.G = j N j.K ! V >.+.O z v m _ H 0.Z.6.s.L.L.U.(.j.s.s.U.OX7.oX|.{ _ f _ [.m . % N 3 , * 1 5 G h v G f f f H v F ,.",
"o O O o O f = > O % O O * = * 2 ) o = , = 4 B 3 , f h , , 1 D i , o O B 4.6 w.1.4 = , ].G.O o a 1 4 * , 1 f f f x 1 i i s m a a ",
"* 2 % 5 * e 5 = 2 3 3 = O 1 , 6 B.* O = 6 6 f f 6 J h v m G H v D * 6 4 * 6 % I f % * N @X2 o i i 4 5 i s T G E c a i i i v z v ",
"O % o 4 _ f * 2 1 * , H 6 % 3 % / 6 O = O 6 * 5 J V V G h ~ / v 6.0.h J H ) 4 , 5 * < O 8.G o * * % % = 5 b c c z 2 , V B 1 2 1 ",
"% % O O 4 6 O * = = % N ,.f 3 % H 4 % 5 o * % * 4 % 5 6 * , h H 7.0.s.>.K ! 2 2 5 * = > ,.6 o 3 % O % * * 1 a h x i , 6 B * , * ",
"; o o O o O & O % 4 = % % 5 5 * q.* * f o & % % O & % % * * % 3 2 f G D f 2 , % * % O 6 * % & , * * * % = V v 6.{ ( s , G <.| ~ ",
"O o o O * % % O O > S 1 & 2 d % 1 % & f + O O O % % O O % % % O O % % * = : * % * 4 5 a 5 O * b a i D V 2 v / _ X.C.b.{ 6.J._ G ",
"O O = O 3 5 O = < O . 3 5 3 5 % * o 3 3 * 3 & = = * % % = 3 * % * % % < J h % = * : 6 * * . . a z 2 4 f 5 m D <.h Q c.[ b x a v ",
"  . o . o o   . o . . o o .     .         . . o . . . o O o .   . . .                 o O o     .             .       . .   . . ",
"% = > %   . < = 4 3 * * < f P K | 2.$.;.$.7 4 w e 4 e Z O.u u w . o 4 V &.*.5.d.f.e.K.s.H.7.f.H.7.0.f.s.1.3.h.d.F $.#.# . B S Z ",
") D 0.C.2 ; / v T c i R c 3 6.) J <.8.f.&X{ h h ~ v J H.T.H. X{.N % h m ..9.J.C.A.} {  .v m D h s v T ^ T T ! X.^ ^ A.3.o k V D ",
"% % O &.K . 2 % % O o 2 p % 4 D m 1 p 6 3.J.1 * % 5 o 5 f * v B.1 o * % * 1 1 i i V N f p 6 , * , 1 i a a a a a 1 i l i . , * % ",
"O % * 3 B O * O * % o % * 3 % 2 h N 2 3 = 2 1 3 % * * 4 D h m { 3 o * % * 5 5 1 , , , 1 3 , * * * % * * , , , 1 2 1 a 3 . i 2 * ",
"% O o 3 3 ; F O * % % % O % = 4 1 1 m % J j , 3 3 1 * 6 f 1 <./ % o * % % = 3 , * 5 5 1 3 * 3 3 * , 3 5 , 1 * * 1 2 a = . 1 2 % ",
"% O o % 3 . >.; o O % % * % & * = * C Z = F 2 , 2 i , N <.M I } % o % % % O % % * * * 3 3 = = 3 , , 5 , i i 1 , 1 i i % O 2 , * ",
"% O O % * . * = O O % O o O o % 5 6 : 6 V S = * 3 2 2 6 V M C b O O * O O O O % % % % * * * % % * * * * 1 2 1 , * , * o O 6 * * ",
"% * % O % o * f % % O o o o o % = 3 % O % % o % 3 % O % = % j v O . % * * O % % % % * * * * % * * * * , = * * % * = , O . O % O ",
"% O O o . . % * % O O o o + o 4 4 > = % % % % % * % O & * % V b %   + O + + * % % & & * * % % % * % * * 3 = * * % % O o   % * * ",
"O + ; ; 0 o + + $ + + o .         .         .                 o o                         .                   . o o + ; o o . . ",
"H n 6 h 7.<.I S J D >.1.>.p.0.f._.o K >.3.) ) | 2.>.<.y.| ^.`./.8.Z.S.V.9.T.v &.p.| ,.,.6   4 / V J P P 3.t.K 4 F J 3.~.!.K >.2.",
"o O . * f.7.5 w o & 4 O * u $.L ].& _ '.H.G V G [.*XC.%X8.T.OXs.>.D V v v <.f 4 V h D 1.D.O o 3 3 * 5 j C t.).p , 6 1 i C J f 6 ",
"o o . o V f % O & * * O = = O O % . . O O O % 6 h K a D D i b a 1 1 , i 1 , 2 1 , 1 h a } * o % % * * * O O 4 = * * , , * f , 1 ",
"o o . o , 1 , 3 1 2 p O & = = % > . o & o O % * f i f p h h 1 6 h i 2 p i 1 , 5 5 3 C ) Y 3 O * * * * * * * % % % * * 5 , * v _ ",
". o o o % i 5 i / f i * O * 6 % % & O o o o o O % = 3 3 d , 3 * 5 * * = , * 3 * 6 ) J J b % . % % % % % % % % % % % * * 1 3 * , ",
"o o o o o % * , k 5 < % & = O = % o O . . o o o O O % O F e % * & % * % % * * * = * f F h O & & % % % % % % % % % % % 4 6 6 4 N ",
"o O O o o o O % 4 6 3 % O O O 6 O . . o o O O o O O O O 4 A 4 K 4 % * * * % * * * = % B 2 O O % % % % % % % O % % % = < 4 6 = = ",
"O O % O O O O % % 4 % O * % O $.4   o O O O O O % % % % % K 6 = 3 % % * 5 * , 1 p 3 5 , 2 O 2 O % * % % * % & % % % 4 * = * 4 * ",
".   . o o o o o o O o o o o o O O .     . o . . . . o . o . . . . o o o o O O O % O o O = o O O o O o o o o o O O . o o o O O o ",
"S B j e u X O f 4 S e 4 e w = : f j V S +.4 e B 4 = V J j n E v d . o h D &.K V 2.3.K T.'.#Xj.D $.r.i.J %.*.S =.%.*.S L r   ; r ",
") 9.{ ( ~.t o V * ; > 4 &.0.8.= % = : 4 F V n D h 2 2 S h T ^ v.x.4 o h 6 4 6 6 e N J 6 J $.2.4 * * 4 = = 7.D H f.R.7.P.{.4 N 1.",
"* % 5 f i O   . o o . . . o 6 % O O O o O = % O O % % % , 1 , x R O . * % % 3 % % O * * J < % * % % % % * = 1 I e 5 4 6 h ; o * ",
"O % % < 1.> o o O o O O O o o O O O O O O O 5 d 2 % % * 3 2 f ~ Q.w   * * % 5 5 O * 2 2 J *.f 5 1 * % * , , d * % S w % * o o % ",
"% * % * 4 ;   O o o O O O o o + O o O O * % * , F F O * f D ,.D v %   O % O % , 6 * = , 6 K v i i d 3 * * * < V * 6 4 % = . o % ",
"O O O % 5 o o O O O O O O O O O O O % O * 3 * 4 4 f V O 4 * 3 1 i % . % % % * * = , = 6 6 2 D ) n f 5 * = % % < * 3 % = v . o % ",
"O % % o & O . O o O O O O O o o O O & % % * 3 = 5 6 f f O O % % 2 %   = 1 2 F f 5 = 2 5 6 1 h D k , S 2 , 1 * * 6 3 & * i . . % ",
"* 4 < O % & O o O O o o O O o O O O * * % * < = * 2 f f % O O % % o . = 4 O 4 6 D N d 3 * 3 2 h V h 5 1 3 3 * 3 e * , 2 1 . o O ",
"B = % & O o 4 ; o % o O O o o O O O O % O O * 3 % % = 4 & % % O O o . % % O % % ; w % 5 = 3 * = N < * % % % * % % % s * , . o O "
};
