/* XPM */
static char *db7cfe5c6f044145bae91ba16fe3150a6M48GTRYtdkcfHwW[] = {
/* columns rows colors chars-per-pixel */
"64 64 253 2 ",
"   c #DD0000",
".  c #DD0101",
"X  c #DD0202",
"o  c #DE0404",
"O  c #DC0000",
"+  c #DD0303",
"@  c #DB0000",
"#  c #DE0909",
"$  c #E01717",
"%  c #E01E1E",
"&  c #DE1F1F",
"*  c #E11C1C",
"=  c #DF1111",
"-  c #DD0404",
";  c #E22929",
":  c #EB6767",
">  c #F29F9F",
",  c #F8C9C9",
"<  c #FCE4E4",
"1  c #FAF0F0",
"2  c white",
"3  c #FCF5F5",
"4  c #FCECEC",
"5  c #FAD9D9",
"6  c #F5B8B8",
"7  c #EF8686",
"8  c #E74949",
"9  c #DF1010",
"0  c #E01616",
"q  c #EC7373",
"w  c #F8CCCC",
"e  c #FBFFFF",
"r  c #DBDDDD",
"t  c #929393",
"y  c #FEFFFF",
"u  c #F3A5A5",
"i  c #E64444",
"p  c #E01515",
"a  c #F08E8E",
"s  c #FDF3F3",
"d  c #FEFBFB",
"f  c #FFFCFC",
"g  c #FAF8F8",
"h  c #EBEAEA",
"j  c #232222",
"k  c black",
"l  c #858484",
"z  c #FCFAFA",
"x  c #FFFBFB",
"c  c #E85151",
"v  c #DE0505",
"b  c #EC6D6D",
"n  c #FDF2F2",
"m  c #FBFBFB",
"M  c gray92",
"N  c gray13",
"B  c #060606",
"V  c gray51",
"C  c #FDFDFD",
"Z  c #FFFEFE",
"A  c #F6BEBE",
"S  c #E22828",
"D  c #E01818",
"F  c #F7C0C0",
"G  c #FEFAFA",
"H  c gray2",
"J  c gray1",
"K  c #848484",
"L  c #EB6C6C",
"P  c #E53B3B",
"I  c #FDF0F0",
"U  c #888888",
"Y  c gray99",
"T  c #F3A2A2",
"R  c #E74E4E",
"E  c #040404",
"W  c gray5",
"Q  c gray77",
"!  c #E74A4A",
"~  c #0B0B0B",
"^  c LightGray",
"/  c #FEF9F9",
"(  c #F7C1C1",
")  c #E33030",
"_  c gray98",
"`  c #FEFEFE",
"'  c #F4AAAA",
"]  c #DF0C0C",
"[  c #FBE4E4",
"{  c #ED7979",
"}  c #F3A8A8",
"|  c #ECECEC",
" . c gray62",
".. c #E43535",
"X. c #E84F4F",
"o. c gray23",
"O. c gray52",
"+. c #F9CFCF",
"@. c #FFFDFD",
"#. c #393939",
"$. c #838383",
"%. c #EA6464",
"&. c gray93",
"*. c #020202",
"=. c #090909",
"-. c #D2D2D2",
";. c #010101",
":. c #FBE0E0",
">. c #DE0606",
",. c #F9D3D3",
"<. c gray10",
"1. c #0C0C0C",
"2. c gray85",
"3. c #EA5F5F",
"4. c #E64242",
"5. c #F8F8F8",
"6. c #4B4B4B",
"7. c #A7A7A7",
"8. c #F7C3C3",
"9. c #F19999",
"0. c #505050",
"q. c gray63",
"w. c #E22727",
"e. c #FADDDD",
"r. c #EB6D6D",
"t. c #E32D2D",
"y. c gray64",
"u. c #373737",
"i. c #F4ADAD",
"p. c #E95D5D",
"a. c gainsboro",
"s. c gray74",
"d. c #272727",
"f. c #515151",
"g. c #FEFCFC",
"h. c #FADADA",
"j. c #EF8787",
"k. c #FAF6F6",
"l. c #202020",
"z. c gray",
"x. c gray72",
"c. c gray42",
"v. c #FCFBFB",
"b. c #FEF6F6",
"n. c #E11A1A",
"m. c #F4A6A6",
"M. c #FDFFFF",
"N. c #BCBCBC",
"B. c #B9B9B9",
"V. c #6D6D6D",
"C. c #E43232",
"Z. c #F3B6B6",
"A. c #EDEAEA",
"S. c gray31",
"D. c #E64343",
"F. c #DA0000",
"G. c #FCC7C7",
"H. c #E7F2F2",
"J. c #1A1818",
"K. c #565656",
"L. c #C0C0C0",
"P. c #7C7A7A",
"I. c #E54A4A",
"U. c #FAC5C5",
"Y. c #EFFAFA",
"T. c #302D2D",
"R. c #464646",
"E. c #A9A9A9",
"W. c #918F8F",
"Q. c #F3B5B5",
"!. c #FBF8F8",
"~. c #353535",
"^. c gray22",
"/. c #9D9D9D",
"(. c #F3A3A3",
"). c gray21",
"_. c #6C6C6C",
"`. c #FBFAFA",
"'. c #E32F2F",
"]. c #EE8383",
"[. c #FBF7F7",
"{. c gray75",
"}. c #E95858",
"|. c gray6",
" X c gray19",
".X c #3E3E3E",
"XX c #C6C6C6",
"oX c #FAD6D6",
"OX c #4E4E4E",
"+X c #F3A6A6",
"@X c #FAD7D7",
"#X c #EA6565",
"$X c #F09090",
"%X c #A2A2A2",
"&X c #E12020",
"*X c #E43838",
"=X c #5A5A5A",
"-X c #979797",
";X c #F6B9B9",
":X c #F8C8C8",
">X c #5D5D5D",
",X c #939393",
"<X c #E85353",
"1X c #E95656",
"2X c #535353",
"3X c gray33",
"4X c gray61",
"5X c #E53F3F",
"6X c #343434",
"7X c #BBBBBB",
"8X c #F19595",
"9X c #E9E9E9",
"0X c #C1C1C1",
"qX c #E22626",
"wX c #F9D4D4",
"eX c #555555",
"rX c #E11F1F",
"tX c #F19393",
"yX c #E43434",
"uX c #F4A9A9",
"iX c #E43636",
"pX c gray30",
"aX c #E22525",
"sX c gray96",
"dX c gray18",
"fX c #DE0808",
"gX c #FDEFEF",
"hX c #FBDFDF",
"jX c #E01414",
"kX c #EC7171",
"lX c #353434",
"zX c #9E9D9D",
"xX c #F5B2B2",
"cX c #E43737",
"vX c #E85656",
"bX c #FDF1F1",
"nX c #EAEEEE",
"mX c #AEB2B2",
"MX c #FAD8D8",
"NX c #EF8989",
"BX c #E32B2B",
"VX c #E74B4B",
"CX c #F4AFAF",
"ZX c #F9CECE",
"AX c #F8DEDE",
"SX c #FFEDED",
"DX c #FFF9F9",
"FX c #F9E3E3",
"GX c #F29C9C",
"HX c #EB6969",
"JX c #DD0C0C",
"KX c #DC0C0C",
"LX c #DE0B0B",
/* pixels */
"                                                                                                                                ",
"                                                                                                                                ",
"                                                                                                                                ",
"                                                                                                                                ",
"                                                                                                                                ",
"                                                          . . X X X . .                                                         ",
"                                                  X o o .   O O O O O   + o + .                                                 ",
"                                            . o . O @ @ O # $ % & * = . @ @ @ O - +                                             ",
"                                        X o O @ O ; : > , < 1 2 2 3 4 5 6 7 8 9 @ @ . -                                         ",
"                                      o O @ 0 q w 2 2 2 2 e 2 r t 2 y 2 2 2 2 4 u i O @ X +                                     ",
"                                  X . @ p a s 2 2 2 d f g 2 h j k l 2 z d x f 2 2 2 w c O O v                                   ",
"                                o O O b n 2 2 d f 2 2 m 2 M N k B k V 2 C 2 2 Z d f 2 2 A S @ + .                               ",
"                              v @ D F 2 2 G Z 2 2 2 m 2 M N k H k J k K 2 C 2 2 2 2 f d 2 2 L @   X                             ",
"                            v @ P I 2 G Z 2 2 2 2 m 2 M N k H k k k B k U 2 Y 2 2 2 2 2 d 2 2 T   O +                           ",
"                          v @ R 2 2 G 2 2 2 2 2 m 2 M N k H k k k E k W Q 2 C 2 2 2 2 2 2 Z G 2 A X O +                         ",
"                        v @ ! 2 2 f 2 2 2 2 2 m 2 M N k H k k k E k ~ ^ 2 Y 2 2 2 2 2 2 2 2 2 / 2 (     X                       ",
"                      - @ ) 2 2 f 2 2 2 2 2 m 2 M N k H k k k E k ~ ^ 2 _ 2 2 2 ` Y 2 2 2 2 2 2 / 2 ' @ X                       ",
"                    X O ] [ 2 x 2 2 2 2 2 m 2 M N k H k k k E k ~ ^ 2 _ 2 2 2 C 2 2 C 2 2 2 2 2 2 G 2 { @ o                     ",
"                    + @ } 2 G 2 2 2 2 2 m 2 M N k H k k k E k ~ ^ 2 _ 2 2 2 Y 2 |  .2 ` ` 2 2 2 2 Z Z 2 ..@ +                   ",
"                  - @ X.2 x 2 2 2 2 2 m 2 M N k H k k k E k ~ ^ 2 _ 2 2 2 Y 2 Y o.k O.2 Y ` 2 2 2 2 f 2 +.                      ",
"                .   . 5 2 @.2 2 2 2 m 2 M N k H k k k J k ~ ^ 2 _ 2 2 2 Y 2 Y #.k B k $.2 Y ` 2 2 2 2 G 2 : @ o                 ",
"                o @ %.2 d 2 2 2 2 Y 2 &.N k H k k k *.k =.-.2 _ 2 2 2 Y 2 Y #.k H ;.J k $.2 Y ` 2 2 2 @.2 :.>.  .               ",
"                    ,.2 @.2 2 2 ` 2 M <.k H k k k ;.k 1.2.2 _ 2 2 2 Y 2 Y #.k H k k ;.J k $.2 Y ` 2 2 2 d 2 3.@ o               ",
"              + @ 4.2 @.2 2 2 2 ` 2 5.6.k H k k k ;.k *.7.2 m 2 2 Y 2 Y #.k H k k k k ;.J k $.2 Y ` 2 2 f 2 8.O X               ",
"              o @ 9.2 d 2 2 2 2 2 C 2 2 0.k H k k k ;.k k q.2 m m 2 Y #.k H k k k k k k ;.J k $.2 Y ` 2 2 2 2 w.O X             ",
"            .   - e.2 @.2 C Y 2 2 2 C 2 2 0.k H k k k *.k k q.2 2 Y #.k H k k k ;.J k k k ;.J k $.2 Y ` 2 d 2 r.@ o             ",
"            X O t.2 2 2 Y 2 2 m 2 2 2 C 2 2 0.k H k k k *.k k y.2 u.k H k k k *.k k J k k k ;.J k $.2 Y ` f 2 i.@ +             ",
"            o @ p.2 f m 2 a.s.2 _ 2 2 2 C 2 2 0.k H k k k *.k H d.k E k k k J k W f.k *.k k k ;.J k $.2 Y g.2 h.X   .           ",
"            o @ j.2 k.2 | l.k z.2 _ 2 2 2 C 2 2 0.k H k k k ;.k k J k k k J k k x.2 c.k E k k k ;.J k $.2 v.2 b.n.O X           ",
"            - @ m.M.2 M N k k k N.2 _ 2 2 2 C 2 2 0.k H k k k ;.*.k k k *.k k B.2 m 2 V.k E k k k ;.J k $.2 Y 2 C.O X           ",
"            X O Z.2 A.N k H *.k k N.2 _ 2 2 2 C 2 2 S.k J k k k k k k *.k k B.2 _ ` ` 2 V.k E k k k ;.J k K 2 2 D.@ +           ",
"            X F.G.H.J.k H k k J k k s.2 _ 2 2 2 C 2 2 K.k J k k k k ;.k J L.2 _ 2 2 ` ` 2 V.k E k k k ;.E k P.2 I.@ +           ",
"            X @ U.Y.T.k H k k k J k k s.2 _ 2 2 Y 2 C R.k *.k k k k ;.k k E.2 m 2 2 2 ` ` 2 V.k E k k *.;.k W.2 I.@ +           ",
"            + O Q.2 !.~.k H k k k J k k s.2 _ Y 2 Y ^.k J k k k k k k ;.k k q.2 _ 2 2 2 ` ` 2 V.k E *.k k /.2 y 4.@ +           ",
"            - @ (.y 2 _ ).k H k k k J k k s.2 2 Y #.k H k k k ;.J k k k *.k k q.2 _ 2 2 2 ` ` 2 _.k ;.k /.2 `.2 '.O X           ",
"            o @ ].2 [.2 _ ).k H k k k J k k {.2 u.k H k k k *.k k J k k k *.k k q.2 _ 2 2 2 ` ` 2 V.k  .2 _ 2 s D O .           ",
"            - @ }.2 f m 2 _ ~.k H k k k J k |. Xk E k k k J k W .Xk E k k k *.k k q.2 _ 2 2 2 ` 2 2 XX2 C @.2 oX                ",
"            X O S 2 2 2 m 2 _ ~.k H k k k *.k k J k k k J k k B.2 OXk H k k k *.k k q.2 _ 2 2 2 ` 2 2 C 2 x 2 +X@ -             ",
"                  @X2 @.2 m 2 _ ~.k H k k k ;.*.k k k J k k B.2 ` 2 0.k H k k k *.k k q.2 m 2 2 2 ` Y 2 2 d 2 #X@ o             ",
"              o @ $X2 d 2 2 m 2 _ ~.k H k k k k k k J k k B.2 _ C 2 2 S.k J k k k *.k k %X2 Y 2 2 2 2 2 Z 2 G &XO X             ",
"              + @ *X2 @.2 2 2 m 2 _ ~.k H k k k k J k k B.2 _ 2 2 C 2 2 =Xk J k k k *.;.k -X2 Y 2 2 2 2 f 2 ;X@ +               ",
"                . O :X2 f 2 2 2 m 2 _ ~.k H k k J k k B.2 _ 2 2 2 C 2 2 >Xk J k k k ;.*.k ,X2 Y 2 2 2 2 x 2 <X@ -               ",
"                - @ 1X2 d 2 2 2 2 m 2 _ ~.k H *.k k B.2 _ 2 2 2 C 2 2 2Xk J k k k *.k k /.2 Y 2 2 2 2 @.2 oX    .               ",
"                  . O w 2 f 2 2 2 2 m 2 _ ~.k k k B.2 _ 2 2 2 C 2 2 3Xk H k k k *.k k 4X2 m 2 2 2 2 2 d 2 }.@ o                 ",
"                  + @ 5X2 @.2 2 2 2 2 m 2 m 6Xk 7X2 _ 2 2 2 C 2 2 3Xk H k k k *.k k 4X2 _ 2 2 2 2 2 d 2 F O X                   ",
"                    o @ 8X2 / 2 2 2 2 2 Y 2 9X0X2 m 2 2 2 C 2 2 3Xk H k k k *.k k 4X2 _ 2 2 2 2 2 Z 2 @.qXO +                   ",
"                    .   X wX2 G 2 2 2 2 2 C 2 2 Y 2 2 2 C 2 2 eXk H k k k *.k k 4X2 _ 2 2 2 2 2 2 d 2 %.@ v                     ",
"                      + O rXs 2 d 2 2 2 2 2 ` Y 2 2 2 C 2 2 eXk H k k k *.k k 4X2 _ 2 2 2 2 2 2 G 2 tX@ +                       ",
"                        o @ yXf 2 d 2 2 2 2 2 2 2 2 C 2 2 3Xk H k k k *.k k 4X2 _ 2 2 2 2 2 Z G 2 uXO   .                       ",
"                          v @ iXb.2 G 2 2 2 2 2 2 ` 2 m pXk H k k k *.k k 4X2 _ 2 2 2 2 2 @.f 2 u O   X                         ",
"                            v @ aXe.2 d @.2 2 2 2 ` 2 sXdXk H k k *.k k 4X2 _ 2 2 2 2 2 G 2 2 j.@   X                           ",
"                              v O fXu 2 2 G @.2 2 2 C 2 m ~.k H ;.k k 4X2 _ 2 2 2 2 d @.2 gXc @ . X                             ",
"                                +   @ c hX2 2 x f Z 2 Y 2 _ ~.k E k 4X2 _ 2 2 @.d 2 2 2 T jX@ o .                               ",
"                                  . + @ v kX:.2 2 2 f x !.2 g lXk zX2 g d x Z 2 2 2 xXcX@ O o                                   ",
"                                      o   @ v vXxXbX2 2 2 M.2 nXmX2 M.2 2 2 2 MXNXBX@ @ - X                                     ",
"                                        . o   @ @ jXVX].CXZXAXSXDXFX5 ( GXHX) . @ O + +                                         ",
"                                            . - + O @ @ @ O >.JXKXLX. O @ @ O   o X                                             ",
"                                                  . + o + .     O     X o o X .                                                 ",
"                                                            . . . . .                                                           ",
"                                                                                                                                ",
"                                                                                                                                ",
"                                                                                                                                ",
"                                                                                                                                ",
"                                                                                                                                "
};
